<svg width="18" height="12" viewBox="0 0 18 12" fill="none" xmlns="http://www.w3.org/2000/svg">
<path d="M16.0728 0.304927C15.7307 0.620156 15.3864 0.937444 15.0443 1.25267C14.226 2.00675 13.41 2.75876 12.5917 3.51284C11.599 4.42762 10.6063 5.3424 9.61362 6.25718C8.76179 7.04216 7.90772 7.82921 7.05589 8.61419C6.64227 8.99534 6.2376 9.3868 5.81504 9.75766C5.80162 9.76796 5.79044 9.77826 5.77703 9.78857C5.85305 9.735 5.92683 9.68143 6.00284 9.62786C5.9939 9.63198 5.98719 9.6361 5.97825 9.64022C6.06768 9.6052 6.15711 9.57017 6.24431 9.53721C6.22642 9.54545 6.20853 9.54957 6.19065 9.55163C6.28902 9.53927 6.38963 9.52691 6.48801 9.51454C6.47012 9.51661 6.45 9.51661 6.43211 9.51248C6.53049 9.52485 6.63109 9.53721 6.72947 9.54957C6.71158 9.54545 6.6937 9.54133 6.67581 9.53309C6.76524 9.56811 6.85467 9.60314 6.94187 9.6361C6.93292 9.63198 6.92622 9.62786 6.91727 9.62168C6.99329 9.67525 7.06707 9.72882 7.14309 9.78239C6.91057 9.59902 6.70488 9.38062 6.48801 9.18077C6.06768 8.79343 5.64736 8.40609 5.22703 8.01875C4.71951 7.55106 4.21199 7.08337 3.7067 6.61774C3.35569 6.29427 3.00244 5.96874 2.65142 5.64527C2.44796 5.45778 2.14837 5.34446 1.85996 5.34446C1.58496 5.34446 1.25853 5.45572 1.06849 5.64527C0.87398 5.841 0.728655 6.09854 0.74207 6.37462C0.755484 6.64864 0.856094 6.90618 1.06849 7.10397C1.59837 7.59227 2.12825 8.08056 2.65813 8.56886C3.07174 8.95002 3.48536 9.33118 3.89898 9.71234C4.44227 10.213 4.97215 10.7281 5.52886 11.2143C5.77927 11.4327 6.08557 11.5604 6.43211 11.5749C6.78313 11.5913 7.13191 11.4512 7.38231 11.2287C7.4002 11.2122 7.42032 11.1937 7.43821 11.1772C7.54329 11.0804 7.65061 10.9815 7.75569 10.8847C8.18943 10.485 8.6254 10.0832 9.05914 9.68349C9.69634 9.0963 10.3358 8.50705 10.973 7.91986C11.6951 7.25438 12.4173 6.58889 13.1394 5.92341C13.8258 5.29089 14.5122 4.65838 15.1986 4.02586C15.7352 3.53138 16.2717 3.03691 16.8083 2.54243C17.0789 2.29313 17.3472 2.0459 17.6177 1.7966C17.6289 1.7863 17.6423 1.77393 17.6535 1.76363C17.8569 1.57614 17.9799 1.30006 17.9799 1.03428C17.9799 0.78086 17.8591 0.480054 17.6535 0.304927C17.4411 0.125679 17.1616 -0.00824134 16.862 0.00412056C16.5669 0.0144222 16.2874 0.107137 16.0728 0.304927Z" fill="#001C5E"/>
</svg>
