<svg width="26" height="24" viewBox="0 0 26 24" fill="none" xmlns="http://www.w3.org/2000/svg">
<path d="M22.1601 11.115V20.2478C22.1601 22.3009 20.461 24 18.4079 24H6.93886C4.95656 24 3.25744 22.3009 3.25744 20.2478V11.115L1.20434 13.1681C0.567177 13.8761 -0.423974 12.8142 0.213194 12.177L12.1778 0.212389C12.461 -0.0707965 12.9566 -0.0707965 13.1689 0.212389L25.2043 12.177C25.8415 12.8142 24.8504 13.8761 24.2132 13.1681L22.1601 11.115ZM4.67337 9.69911V20.2478C4.67337 21.5221 5.73532 22.5841 6.93886 22.5841H9.34594V15.7876C9.34594 14.7257 10.1955 13.8761 11.2574 13.8761H14.0893C15.1512 13.8761 16.0008 14.7257 16.0008 15.7876V22.5841H18.4079C19.6822 22.5841 20.7442 21.5221 20.7442 20.2478V9.69911L12.6734 1.69912L4.67337 9.69911ZM10.7619 22.5841H14.5849V15.7876C14.5849 15.5044 14.3725 15.292 14.0893 15.292H11.2574C10.9743 15.292 10.7619 15.5044 10.7619 15.7876V22.5841Z" fill="#001C5E"/>
</svg>
