<svg width="46" height="46" viewBox="0 0 46 46" fill="none" xmlns="http://www.w3.org/2000/svg">
<path d="M12.3389 1.61719C11.5945 1.61719 10.9912 2.22047 10.9912 2.96484V7.82799C10.9912 8.57236 11.5945 9.17564 12.3389 9.17564C13.0832 9.17564 13.6865 8.57236 13.6865 7.82799V2.96484C13.6865 2.22047 13.0832 1.61719 12.3389 1.61719Z" fill="#C5FEFF"/>
<path d="M33.6611 1.61719C32.9168 1.61719 32.3135 2.22047 32.3135 2.96484V7.82799C32.3135 8.57236 32.9168 9.17564 33.6611 9.17564C34.4055 9.17564 35.0088 8.57236 35.0088 7.82799V2.96484C35.0088 2.22047 34.4055 1.61719 33.6611 1.61719Z" fill="#36F1FF"/>
<path d="M46 13.2997V37.474C46 41.2337 42.9408 44.293 39.181 44.293H6.819C3.05925 44.293 0 41.2337 0 37.474V13.2997C0 9.53958 3.05925 6.48033 6.819 6.48033H39.181C42.9408 6.48033 46 9.53958 46 13.2997Z" fill="#FF774B"/>
<path d="M46 13.2997V37.474C46 41.2337 42.9408 44.293 39.181 44.293H23V6.48033H39.181C42.9408 6.48033 46 9.53958 46 13.2997Z" fill="#FF3D00"/>
<path d="M40.6166 18.1842V37.1349C40.6166 38.119 39.8164 38.9195 38.8323 38.9195H28.1922L23.0002 38.0211L17.8082 38.9195H7.16803C6.18396 38.9195 5.38379 38.119 5.38379 37.1349V18.1842C5.38379 17.1998 6.18396 16.3993 7.16803 16.3993H38.8323C39.8164 16.3993 40.6166 17.1998 40.6166 18.1842Z" fill="white"/>
<path d="M40.6164 18.1842V37.1349C40.6164 38.119 39.8162 38.9195 38.8322 38.9195H28.192L23 38.0211V16.3993H38.8322C39.8162 16.3993 40.6164 17.1998 40.6164 18.1842Z" fill="#C5FEFF"/>
<path d="M26.4495 11.6256C26.4495 12.3707 25.8469 12.9733 25.1019 12.9733H20.8975C20.1524 12.9733 19.5498 12.3707 19.5498 11.6256C19.5498 10.882 20.1524 10.278 20.8975 10.278H25.1019C25.8469 10.278 26.4495 10.882 26.4495 11.6256Z" fill="white"/>
<path d="M14.4414 10.2783H10.2363C9.49196 10.2783 8.88867 10.882 8.88867 11.626C8.88867 12.3704 9.49196 12.9736 10.2363 12.9736H14.4414C15.1858 12.9736 15.7891 12.3704 15.7891 11.626C15.7891 10.882 15.1858 10.2783 14.4414 10.2783Z" fill="white"/>
<path d="M35.7637 10.2783H31.5586C30.8142 10.2783 30.2109 10.882 30.2109 11.626C30.2109 12.3704 30.8142 12.9736 31.5586 12.9736H35.7637C36.5081 12.9736 37.1114 12.3704 37.1114 11.626C37.1114 10.882 36.5081 10.2783 35.7637 10.2783Z" fill="#C5FEFF"/>
<path d="M25.1022 12.9733H23V10.278H25.1022C25.8473 10.278 26.4499 10.882 26.4499 11.6256C26.4499 12.3707 25.8473 12.9733 25.1022 12.9733Z" fill="#C5FEFF"/>
<path d="M23.9038 19.8888H22.0964C20.6814 19.8888 19.5303 21.0413 19.5303 22.4581V27.1454C19.5303 27.8895 20.1332 28.4931 20.8779 28.4931C21.6219 28.4931 22.2256 27.8895 22.2256 27.1454V26.7025H23.7747V27.1454C23.7747 27.8895 24.3783 28.4931 25.1223 28.4931C25.8671 28.4931 26.47 27.8895 26.47 27.1454V22.4581C26.47 21.0413 25.3189 19.8888 23.9038 19.8888ZM23.7747 24.0072H22.2256V22.5841H23.7747V24.0072Z" fill="#36F1FF"/>
<path d="M25.6399 33.1997L33.6304 28.2639C34.2635 27.8726 35.0942 28.0688 35.4852 28.7023C35.8765 29.3354 35.68 30.1657 35.0469 30.5571L27.0564 35.4928C26.8356 35.6294 26.591 35.6939 26.3496 35.6939C25.8979 35.6939 25.4564 35.4672 25.2016 35.0545C24.8103 34.4214 25.0068 33.591 25.6399 33.1997Z" fill="#FF7C10"/>
<path d="M28.1916 37.5719V38.9195H17.8076V37.5719C17.8076 34.7039 20.1362 32.3708 22.9996 32.3708C25.863 32.3708 28.1916 34.7039 28.1916 37.5719Z" fill="#C5FEFF"/>
<path d="M26.4699 22.4581V27.1454C26.4699 27.8895 25.8669 28.4931 25.1222 28.4931C24.3782 28.4931 23.7746 27.8895 23.7746 27.1454V26.7025H23V24.0072H23.7746V22.5841H23V19.8888H23.9037C25.3187 19.8888 26.4699 21.0413 26.4699 22.4581Z" fill="#05DBDB"/>
<path d="M28.192 37.5719V38.9195H23V32.3708C25.8634 32.3708 28.192 34.7039 28.192 37.5719Z" fill="#36F1FF"/>
</svg>
