<svg width="23" height="24" viewBox="0 0 23 24" fill="none" xmlns="http://www.w3.org/2000/svg">
<path d="M19.8153 15.6533L14.8088 13.8374V12.4555C15.1611 11.918 15.3982 11.3141 15.5054 10.6815C15.8035 10.5055 16.0612 10.2695 16.262 9.98861C16.4628 9.70769 16.6023 9.38809 16.6715 9.05034C16.7407 8.71259 16.7381 8.36418 16.6639 8.0275C16.5896 7.69081 16.4453 7.37331 16.2403 7.09539C16.3056 6.76044 16.3389 6.42012 16.3399 6.07895C16.3624 4.69185 15.8312 3.35242 14.8627 2.35413C13.8941 1.35585 12.5672 0.780124 11.1726 0.753103C9.77738 0.78012 8.44987 1.35637 7.48121 2.35548C6.51254 3.35459 5.9818 4.695 6.00537 6.08276C6.00636 6.42393 6.03968 6.76425 6.10489 7.0992C5.89988 7.37711 5.75561 7.69462 5.68135 8.0313C5.60709 8.36799 5.60448 8.7164 5.67369 9.05415C5.74291 9.3919 5.88241 9.7115 6.08324 9.99242C6.28406 10.2733 6.54177 10.5094 6.83979 10.6853C6.94704 11.3179 7.18417 11.9218 7.53641 12.4593V13.8298L2.47251 15.6571C1.76129 15.9157 1.14693 16.385 0.712313 17.0018C0.277694 17.6185 0.043732 18.353 0.0419922 19.1061V23.6249H22.242V19.0985C22.2398 18.3465 22.006 17.6132 21.5722 16.9972C21.1383 16.3813 20.5252 15.9123 19.8153 15.6533ZM6.77089 8.55724C6.775 8.21494 6.91217 7.88752 7.15365 7.64359L7.34503 7.41517L7.2723 7.11443C7.12368 6.52652 7.1041 5.91368 7.21489 5.31757C7.3833 5.31757 7.55172 5.31757 7.72779 5.31757C10.0243 5.31757 11.9381 4.36585 12.4434 3.08292C12.7879 3.93948 13.7601 4.65136 15.0538 5.02444C15.2265 5.70407 15.2265 6.41576 15.0538 7.09539L15.0002 7.41517L15.2145 7.63978C15.3643 7.79545 15.4737 7.985 15.5334 8.19209C15.5931 8.39917 15.6012 8.61759 15.5571 8.82851C15.5131 9.03944 15.4181 9.23654 15.2804 9.40283C15.1427 9.56912 14.9664 9.69961 14.7667 9.78306L14.4529 9.9163L14.4184 10.2551C14.3572 10.8655 14.1368 11.4494 13.7792 11.9492L13.672 12.0977V14.3247C13.4156 14.7572 13.0502 15.1157 12.6119 15.3647C12.1735 15.6137 11.6774 15.7447 11.1726 15.7447C10.6691 15.7458 10.1742 15.6151 9.73755 15.3659C9.30086 15.1167 8.93776 14.7576 8.68468 14.3247V12.0977L8.57751 11.9492C8.21988 11.4494 7.99955 10.8655 7.9383 10.2551L7.90385 9.9163L7.58999 9.78306C7.34749 9.68135 7.14049 9.51085 6.99482 9.29285C6.84915 9.07485 6.77126 8.819 6.77089 8.55724ZM21.0899 22.4829H1.18644V19.1061C1.18782 18.5871 1.34932 18.081 1.64913 17.6562C1.94894 17.2314 2.37261 16.9083 2.86292 16.7306L7.72779 14.9719C8.08845 15.5553 8.59338 16.037 9.19442 16.3712C9.79545 16.7054 10.4726 16.8809 11.1611 16.8809C11.8497 16.8809 12.5268 16.7054 13.1278 16.3712C13.7289 16.037 14.2338 15.5553 14.5945 14.9719L19.4096 16.7192C19.8985 16.8982 20.3205 17.2218 20.6189 17.6465C20.9172 18.0712 21.0776 18.5766 21.0784 19.0947L21.0899 22.4829Z" fill="#001C5E"/>
</svg>
