<svg width="50" height="50" viewBox="0 0 50 50" fill="none" xmlns="http://www.w3.org/2000/svg">
<path fill-rule="evenodd" clip-rule="evenodd" d="M11.8696 41.0123C11.7551 41.0107 11.6415 41.0316 11.5353 41.0737C11.4291 41.1159 11.3325 41.1784 11.251 41.2578C11.1695 41.3372 11.1047 41.4317 11.0606 41.536C11.0164 41.6403 10.9937 41.7522 10.9937 41.8652C10.9937 41.9783 11.0164 42.0902 11.0606 42.1945C11.1047 42.2987 11.1695 42.3933 11.251 42.4727C11.3325 42.552 11.4291 42.6146 11.5353 42.6567C11.6415 42.6989 11.7551 42.7198 11.8696 42.7182H26.1319C26.2463 42.7198 26.36 42.6989 26.4662 42.6567C26.5724 42.6146 26.669 42.552 26.7505 42.4727C26.832 42.3933 26.8967 42.2987 26.9409 42.1945C26.9851 42.0902 27.0078 41.9783 27.0078 41.8652C27.0078 41.7522 26.9851 41.6403 26.9409 41.536C26.8967 41.4317 26.832 41.3372 26.7505 41.2578C26.669 41.1784 26.5724 41.1159 26.4662 41.0737C26.36 41.0316 26.2463 41.0107 26.1319 41.0123H11.8696Z" fill="white"/>
<path fill-rule="evenodd" clip-rule="evenodd" d="M11.8696 37.3634C11.7551 37.3618 11.6415 37.3826 11.5353 37.4248C11.4291 37.4669 11.3325 37.5295 11.251 37.6089C11.1695 37.6882 11.1047 37.7828 11.0606 37.8871C11.0164 37.9914 10.9937 38.1033 10.9937 38.2163C10.9937 38.3293 11.0164 38.4413 11.0606 38.5455C11.1047 38.6498 11.1695 38.7444 11.251 38.8237C11.3325 38.9031 11.4291 38.9657 11.5353 39.0078C11.6415 39.05 11.7551 39.0708 11.8696 39.0692H26.1319C26.2463 39.0708 26.36 39.05 26.4662 39.0078C26.5724 38.9657 26.669 38.9031 26.7505 38.8237C26.832 38.7444 26.8967 38.6498 26.9409 38.5455C26.9851 38.4413 27.0078 38.3293 27.0078 38.2163C27.0078 38.1033 26.9851 37.9914 26.9409 37.8871C26.8967 37.7828 26.832 37.6882 26.7505 37.6089C26.669 37.5295 26.5724 37.4669 26.4662 37.4248C26.36 37.3826 26.2463 37.3618 26.1319 37.3634H11.8696Z" fill="white"/>
<path fill-rule="evenodd" clip-rule="evenodd" d="M7.49771 23.8591C7.3796 23.8934 7.2691 23.953 7.17604 24.0326C7.08299 24.1121 7.00746 24.2116 6.95616 24.3221L4.55551 29.4952C3.87255 29.249 3.17676 29.0325 2.40765 29.0916C1.88411 29.1318 1.31286 29.3689 0.912867 29.8114C0.526605 30.2387 0.290962 30.7971 0.137882 31.4955C-0.0957744 32.1214 0.0244437 32.8153 0.327494 33.2839C0.64501 33.7749 1.08477 34.0885 1.50878 34.3339C1.76385 34.4816 2.02191 34.604 2.25867 34.7036C1.99811 35.2926 1.74101 35.9659 1.50813 36.5923C1.14091 37.5799 0.85876 38.4199 0.85876 38.4199C0.824819 38.5208 0.810223 38.6281 0.815967 38.7343C0.894298 40.175 0.81778 42.5624 1.05161 44.1411V49.8741C1.05161 49.9857 1.07411 50.0974 1.11738 50.2005C1.16064 50.3036 1.22464 50.3983 1.30457 50.4772C1.38454 50.5562 1.48032 50.6194 1.58478 50.6621C1.68919 50.7048 1.8022 50.727 1.91525 50.727H6.8682C6.98125 50.727 7.09426 50.7049 7.19867 50.6621C7.30313 50.6194 7.39891 50.5562 7.47888 50.4772C7.55881 50.3983 7.6228 50.3036 7.66607 50.2005C7.70934 50.0974 7.73184 49.9857 7.73184 49.8741V47.2769C11.0055 47.6919 15.1069 47.8141 18.9937 47.7931C18.9968 47.7931 19 47.7931 19.0032 47.7931C22.8914 47.814 26.9921 47.6918 30.2651 47.277V49.8741C30.2651 49.9857 30.2876 50.0974 30.3308 50.2005C30.3741 50.3036 30.4381 50.3983 30.518 50.4772C30.598 50.5562 30.6938 50.6194 30.7982 50.6621C30.9026 50.7048 31.0156 50.727 31.1287 50.727H36.0817C36.1947 50.727 36.3077 50.7049 36.4121 50.6621C36.5166 50.6194 36.6124 50.5562 36.6923 50.4772C36.7723 50.3983 36.8363 50.3036 36.8795 50.2005C36.9228 50.0974 36.9453 49.9857 36.9453 49.8741V44.1425C37.184 42.5611 37.1067 40.1748 37.181 38.7319C37.1864 38.6268 37.1719 38.5208 37.1385 38.4208C37.1385 38.4208 36.8572 37.5805 36.4905 36.5926C36.2579 35.966 36.0011 35.2926 35.7397 34.703C35.9761 34.6035 36.2337 34.4813 36.4883 34.3341C36.9125 34.0888 37.3525 33.7753 37.6706 33.2849C37.9744 32.8167 38.0963 32.1229 37.8636 31.4963C37.7105 30.7975 37.4749 30.2388 37.0884 29.8114C36.6884 29.3689 36.1171 29.1318 35.5935 29.0916C34.8244 29.0325 34.1288 29.249 33.4458 29.4952L31.0451 24.3221C30.9938 24.2116 30.9183 24.1121 30.8252 24.0326C30.7321 23.953 30.6216 23.8934 30.5035 23.8591C22.392 22.0773 16.5193 21.4354 7.49771 23.8591ZM29.6428 25.3947L32.2079 30.9224C32.2522 31.018 32.3146 31.1053 32.3909 31.1785C32.4671 31.2518 32.5572 31.3109 32.6551 31.352C32.753 31.3929 32.8586 31.4161 32.965 31.4196C33.0713 31.4239 33.1782 31.4068 33.2786 31.3721C34.2547 31.0344 35.0963 30.7645 35.4597 30.7924C35.6414 30.8064 35.6897 30.8256 35.8 30.9475C35.9103 31.0695 36.0725 31.3596 36.1876 31.9132C36.1992 31.9687 36.2163 32.0231 36.2388 32.0753C36.3149 32.252 36.2995 32.2363 36.2162 32.3647C36.1329 32.4931 35.9043 32.695 35.6156 32.8619C35.0381 33.1959 34.3201 33.3906 34.3201 33.3906C34.1921 33.4235 34.0721 33.4858 33.9721 33.5713C33.8722 33.6567 33.7925 33.7652 33.7413 33.8855C33.6901 34.0058 33.6673 34.1379 33.6753 34.2683C33.6834 34.3985 33.7223 34.5269 33.788 34.6402C34.0488 35.0898 34.5127 36.2209 34.8688 37.1799C35.1347 37.8963 35.3543 38.5323 35.4486 38.8089C35.3777 40.3949 35.4166 42.7052 35.2347 43.9052C35.2308 43.924 35.228 43.9432 35.2255 43.962C35.2155 44.0058 35.1797 44.0845 35.0141 44.2204C34.8306 44.3711 34.5025 44.5552 34.0584 44.7243C33.1702 45.0627 31.8344 45.3493 30.2534 45.5584C27.0916 45.9765 22.9356 46.1087 19.0032 46.0872C19 46.0872 18.9969 46.0872 18.9937 46.0872C15.0635 46.1089 10.9075 45.9765 7.74505 45.5584C6.16382 45.3493 4.8276 45.0625 3.93896 44.7242C3.49466 44.555 3.16635 44.371 2.98279 44.2203C2.81766 44.0848 2.78165 44.0061 2.77146 43.9624C2.76891 43.9411 2.76558 43.9202 2.76144 43.899C2.58426 42.6944 2.62351 40.3927 2.54864 38.8084C2.64351 38.5311 2.86348 37.8961 3.12961 37.1804C3.48629 36.221 3.94976 35.0898 4.21006 34.638C4.27535 34.5248 4.31382 34.3965 4.3216 34.2664C4.32937 34.1363 4.3064 34.0045 4.25505 33.8844C4.20371 33.7643 4.12408 33.6562 4.02425 33.5709C3.92441 33.4856 3.80449 33.4235 3.67676 33.3906C3.67676 33.3906 2.95869 33.1959 2.382 32.8622C2.09367 32.6953 1.86576 32.4934 1.78311 32.3656C1.70046 32.2379 1.68487 32.2542 1.76165 32.077C1.78449 32.0243 1.80189 31.9693 1.8136 31.9132C1.92872 31.3596 2.09104 31.0695 2.20133 30.9475C2.31157 30.8255 2.35993 30.8063 2.54164 30.7924C2.90502 30.7646 3.74654 31.0344 4.72258 31.3721C4.82298 31.4066 4.9299 31.423 5.03621 31.4196C5.14253 31.4153 5.24819 31.3932 5.34608 31.352C5.44393 31.3111 5.53406 31.2518 5.61027 31.1785C5.68653 31.1053 5.74893 31.018 5.79323 30.9224L8.35849 25.3946C15.7599 23.6698 21.9218 23.392 29.6428 25.3947ZM2.77888 46.0873C2.94993 46.1683 3.12909 46.2441 3.31758 46.3158C4.07619 46.6047 4.98146 46.8315 6.00456 47.0159V49.0211H2.77888V46.0873ZM35.218 46.0875V49.0211H31.9923V47.0162C33.0158 46.8317 33.9212 46.6049 34.68 46.3158C34.8682 46.2442 35.0471 46.1684 35.218 46.0875Z" fill="white"/>
<path fill-rule="evenodd" clip-rule="evenodd" d="M30.9181 36.6006C29.2957 36.6006 27.9619 37.9202 27.9619 39.5251C27.9619 41.1327 29.2957 42.4539 30.9181 42.4539C32.5431 42.4539 33.8788 41.1327 33.8788 39.5251C33.8788 37.9202 32.5431 36.6006 30.9181 36.6006ZM30.9181 38.3065C31.6095 38.3065 32.1515 38.8418 32.1515 39.5251C32.1515 40.2145 31.6095 40.748 30.9181 40.748C30.2329 40.748 29.6892 40.2145 29.6892 39.5251C29.6892 38.8418 30.2329 38.3065 30.9181 38.3065Z" fill="white"/>
<path fill-rule="evenodd" clip-rule="evenodd" d="M7.07879 36.6006C5.45377 36.6006 4.12256 37.9223 4.12256 39.5251C4.12256 41.1305 5.45377 42.4539 7.07879 42.4539C8.70376 42.4539 10.0394 41.1327 10.0394 39.5251C10.0394 37.9202 8.70376 36.6006 7.07879 36.6006ZM7.07879 38.3065C7.77013 38.3065 8.31214 38.8418 8.31214 39.5251C8.31214 40.2145 7.77013 40.748 7.07879 40.748C6.3874 40.748 5.84983 40.2166 5.84983 39.5251C5.84983 38.8397 6.3874 38.3065 7.07879 38.3065Z" fill="white"/>
<path d="M49.2031 21.8531L43.6813 16.3312C45.05 14.6625 45.875 12.525 45.875 10.1953C45.875 4.85156 41.5391 0.515625 36.1953 0.515625C30.8469 0.515625 26.5156 4.85156 26.5156 10.1953C26.5156 15.5391 30.8469 19.875 36.1953 19.875C38.525 19.875 40.6578 19.0547 42.3266 17.6859L47.8484 23.2031C48.2234 23.5781 48.8281 23.5781 49.2031 23.2031C49.5781 22.8328 49.5781 22.2234 49.2031 21.8531ZM36.1953 17.9484C31.9156 17.9484 28.4375 14.4703 28.4375 10.1953C28.4375 5.92031 31.9156 2.4375 36.1953 2.4375C40.4703 2.4375 43.9531 5.92031 43.9531 10.1953C43.9531 14.4703 40.4703 17.9484 36.1953 17.9484Z" fill="white"/>
</svg>
