<svg width="40" height="40" viewBox="0 0 40 40" fill="none" xmlns="http://www.w3.org/2000/svg">
<circle opacity="0.3" cx="20" cy="20" r="20" transform="rotate(90 20 20)" fill="#FD151B"/>
<circle cx="20" cy="20" r="10" transform="rotate(90 20 20)" fill="#FD151B"/>
<path d="M20 16C19.4237 16 18.9565 16.4672 18.9565 17.0435V18.9565H17.0435C16.4672 18.9565 16 19.4237 16 20C16 20.5763 16.4672 21.0435 17.0435 21.0435H18.9565V22.9565C18.9565 23.5328 19.4237 24 20 24C20.5763 24 21.0435 23.5328 21.0435 22.9565V21.0435H22.9565C23.5328 21.0435 24 20.5763 24 20C24 19.4237 23.5328 18.9565 22.9565 18.9565H21.0435V17.0435C21.0435 16.4672 20.5763 16 20 16Z" fill="white"/>
</svg>
