<svg width="50" height="50" viewBox="0 0 50 50" fill="none" xmlns="http://www.w3.org/2000/svg">
<path d="M25 0C11.2109 0 0 11.2109 0 25C0 38.7891 11.2109 50 25 50C38.7891 50 50 38.7891 50 25C50 11.2109 38.7891 0 25 0ZM25 48.4375C12.0703 48.4375 1.5625 37.9297 1.5625 25C1.5625 12.0703 12.0703 1.5625 25 1.5625C37.9297 1.5625 48.4375 12.0703 48.4375 25C48.4375 37.9297 37.9297 48.4375 25 48.4375Z" fill="white"/>
<path d="M7.65613 31.0158C4.33581 21.4455 9.41394 10.9768 18.9843 7.65645C26.5624 5.03926 34.9608 7.61739 39.7264 14.0236L41.328 13.594C35.078 4.60958 22.6561 2.38301 13.6327 8.63301C6.13269 13.8283 3.16394 23.4377 6.328 31.9924L7.65613 31.0158Z" fill="white"/>
<path d="M44.2188 19.7656C43.9453 20.3125 43.4766 20.7422 42.8906 20.9766C45.1172 30.8594 38.9453 40.7031 29.0234 42.9297C21.6406 44.6094 13.9844 41.5625 9.76563 35.2734L8.51562 36.2109C14.6875 45.3125 27.0703 47.6953 36.1719 41.5234C43.2422 36.7188 46.4453 27.9688 44.2188 19.7656Z" fill="white"/>
<path d="M39.1406 16.6016C39.2578 17.0313 39.6875 17.2656 40.0781 17.1484L40.2344 17.1094L30.1953 25.3125C30.625 25.625 30.9766 26.0156 31.3281 26.4062L41.4453 18.1641L41.3281 18.5547C41.2109 18.9844 41.4453 19.4141 41.875 19.5313C42.3047 19.6484 42.7344 19.4141 42.8516 18.9844L43.7109 15.8594C43.8281 15.4297 43.5938 15 43.1641 14.8828C43.0469 14.8438 42.8906 14.8438 42.7734 14.8828L39.6875 15.6641C39.2969 15.7812 39.0234 16.2109 39.1406 16.6016Z" fill="white"/>
<path d="M17.4218 28.6327C17.6952 28.3202 18.0468 28.1249 18.4374 27.9686C18.5546 27.9296 18.6718 27.8905 18.7889 27.8124L17.8124 26.4843C17.5389 26.1327 17.0702 26.0546 16.7186 26.328L6.56238 33.7499C6.21081 34.0233 6.13269 34.4921 6.40613 34.8436C6.67956 35.1952 7.14831 35.2733 7.49988 34.9999L16.9921 28.0468L17.4218 28.6327Z" fill="white"/>
<path d="M25 38.6719C25.4297 38.6719 25.7812 38.3203 25.7812 37.8906V35.3516C26.5625 35.3125 27.3437 35.1172 28.0859 34.8047C30.0781 33.9062 31.7187 31.6016 30.9375 29.0234C30.1172 26.25 27.6172 25.5078 25.4297 24.8437C23.6328 24.2969 21.9531 23.7891 21.0937 22.3047C20.3906 21.1328 20.3906 19.6875 21.0547 18.5156C21.875 17.2266 23.3203 16.7188 24.7266 16.6797C24.8828 16.7188 25.0391 16.7188 25.1953 16.6797C25.5859 16.6797 25.9375 16.7188 26.3281 16.7969C28.125 17.2266 29.5312 18.5937 30.0781 20.3516C30.1953 20.7812 30.625 21.0156 31.0156 20.8984C31.4453 20.7812 31.6797 20.3516 31.5625 19.9609C30.8594 17.6172 28.9844 15.8203 26.6016 15.2734C26.3281 15.2344 26.0156 15.1562 25.7422 15.1562V12.1094C25.7422 11.6797 25.3906 11.3281 24.9609 11.3281C24.5312 11.3281 24.1797 11.6797 24.1797 12.1094V15.1562C22.4609 15.3125 20.7422 16.0547 19.7266 17.6953C18.75 19.375 18.75 21.4062 19.7266 23.0859C20.8594 25.1172 23.0469 25.7422 24.9609 26.3281C27.0312 26.9531 28.8281 27.5 29.4141 29.4531C29.9609 31.25 28.75 32.7344 27.3828 33.3594C25.9375 33.9844 24.3359 33.9453 22.9297 33.2812C21.4844 32.6562 20.3516 31.4453 19.8437 29.9609C19.7266 29.5312 19.2578 29.3359 18.8672 29.4531C18.4766 29.5703 18.2422 30.0391 18.3594 30.4297C19.0234 32.3438 20.4297 33.9062 22.3047 34.7266C22.8906 35 23.5156 35.1563 24.1797 35.2734V37.8906C24.2187 38.3203 24.5703 38.6719 25 38.6719Z" fill="white"/>
</svg>
