<svg width="50" height="50" viewBox="0 0 50 50" fill="none" xmlns="http://www.w3.org/2000/svg">
<circle opacity="0.3" cx="25" cy="25" r="20" transform="rotate(90 25 25)" fill="#FD151B"/>
<path d="M31.3142 49.1958C29.7545 49.6017 28.1354 49.8607 26.4728 49.9573L26.4438 49.4582C25.9661 49.4859 25.4847 49.5 25 49.5C24.5153 49.5 24.0339 49.4859 23.5562 49.4582L23.5272 49.9573C21.8646 49.8607 20.2455 49.6017 18.6858 49.1958L18.8117 48.7119C17.874 48.4679 16.9581 48.1697 16.0677 47.8209L15.8853 48.2864C14.3505 47.6852 12.8896 46.9366 11.52 46.0581L11.79 45.6373C10.9785 45.1167 10.1997 44.5496 9.45734 43.9397L9.13992 44.326C7.87476 43.2865 6.71348 42.1252 5.674 40.8601L6.06032 40.5427C5.4504 39.8003 4.88328 39.0215 4.36273 38.21L3.94188 38.48C3.06336 37.1104 2.31479 35.6495 1.71358 34.1147L2.17914 33.9323C1.83032 33.0419 1.53214 32.126 1.28812 31.1883L0.804232 31.3142C0.398326 29.7545 0.139258 28.1354 0.0426662 26.4728L0.541827 26.4438C0.514075 25.9661 0.500003 25.4847 0.500003 25C0.500003 24.5153 0.514075 24.0339 0.541827 23.5562L0.0426664 23.5272C0.139258 21.8646 0.398326 20.2455 0.804233 18.6858L1.28812 18.8117C1.53214 17.874 1.83033 16.9581 2.17914 16.0677L1.71358 15.8853C2.31479 14.3505 3.06336 12.8896 3.94188 11.52L4.36274 11.79C4.88328 10.9785 5.4504 10.1997 6.06033 9.45734L5.674 9.13992C6.71348 7.87476 7.87477 6.71348 9.13993 5.674L9.45734 6.06032C10.1997 5.45039 10.9785 4.88327 11.79 4.36273L11.52 3.94187C12.8896 3.06335 14.3505 2.31479 15.8853 1.71358L16.0677 2.17913C16.9581 1.83032 17.874 1.53214 18.8117 1.28811L18.6858 0.80423C20.2455 0.398325 21.8646 0.139255 23.5272 0.0426633L23.5562 0.541822C24.0339 0.514071 24.5153 0.499999 25 0.499999C25.4847 0.499999 25.9662 0.514071 26.4438 0.541822L26.4728 0.0426634C28.1354 0.139255 29.7545 0.398325 31.3142 0.804231L31.1883 1.28811C32.126 1.53214 33.0419 1.83032 33.9323 2.17913L34.1147 1.71358C35.6495 2.31479 37.1104 3.06336 38.48 3.94188L38.21 4.36273C39.0215 4.88327 39.8003 5.45039 40.5427 6.06033L40.8601 5.674C42.1252 6.71348 43.2865 7.87476 44.326 9.13993L43.9397 9.45734C44.5496 10.1997 45.1167 10.9785 45.6373 11.79L46.0581 11.52C46.9366 12.8896 47.6852 14.3505 48.2864 15.8853L47.8209 16.0677C48.1697 16.9581 48.4679 17.874 48.7119 18.8117L49.1958 18.6858C49.6017 20.2455 49.8607 21.8646 49.9573 23.5272L49.4582 23.5562C49.4859 24.0339 49.5 24.5153 49.5 25C49.5 25.4847 49.4859 25.9662 49.4582 26.4438L49.9573 26.4728C49.8607 28.1355 49.6017 29.7545 49.1958 31.3142L48.7119 31.1883C48.4679 32.126 48.1697 33.0419 47.8209 33.9323L48.2864 34.1147C47.6852 35.6495 46.9366 37.1104 46.0581 38.48L45.6373 38.21C45.1167 39.0215 44.5496 39.8003 43.9397 40.5427L44.326 40.8601C43.2865 42.1252 42.1252 43.2865 40.8601 44.326L40.5427 43.9397C39.8003 44.5496 39.0215 45.1167 38.21 45.6373L38.48 46.0581C37.1104 46.9366 35.6495 47.6852 34.1147 48.2864L33.9323 47.8209C33.0419 48.1697 32.126 48.4679 31.1883 48.7119L31.3142 49.1958Z" stroke="#FD151B" stroke-dasharray="3 5"/>
<circle cx="25" cy="25" r="10" transform="rotate(90 25 25)" fill="#FD151B"/>
<path d="M25 21C24.4237 21 23.9565 21.4672 23.9565 22.0435V23.9565H22.0435C21.4672 23.9565 21 24.4237 21 25C21 25.5763 21.4672 26.0435 22.0435 26.0435H23.9565V27.9565C23.9565 28.5328 24.4237 29 25 29C25.5763 29 26.0435 28.5328 26.0435 27.9565V26.0435H27.9565C28.5328 26.0435 29 25.5763 29 25C29 24.4237 28.5328 23.9565 27.9565 23.9565H26.0435V22.0435C26.0435 21.4672 25.5763 21 25 21Z" fill="white"/>
</svg>
