<svg width="50" height="50" viewBox="0 0 50 50" fill="none" xmlns="http://www.w3.org/2000/svg">
<path d="M25 0C11.193 0 0 11.193 0 25C0 38.807 11.193 50 25 50C38.807 50 50 38.807 50 25C49.9845 11.1995 38.8005 0.0154623 25 0ZM25 48.3333C12.1134 48.3333 1.66667 37.8866 1.66667 25C1.66667 12.1134 12.1134 1.66667 25 1.66667C37.8866 1.66667 48.3333 12.1134 48.3333 25C48.3187 37.8805 37.8805 48.3187 25 48.3333Z" fill="#4E4E51"/>
<path d="M32.7441 23.0894C33.0697 23.4145 33.597 23.4145 33.9225 23.0894L37.2559 19.756C37.3336 19.6783 37.395 19.5859 37.4365 19.4842C37.5208 19.2804 37.5208 19.0517 37.4365 18.8478C37.395 18.7461 37.3336 18.6537 37.2559 18.576L33.9225 15.2427C33.5954 14.9269 33.0758 14.9314 32.7543 15.2529C32.4329 15.5743 32.4284 16.0939 32.7441 16.4211L34.655 18.3335H30C26.4266 18.3335 24.6749 20.6809 23.3333 23.1769C21.9918 20.6769 20.2401 18.3335 16.6667 18.3335H13.3333C12.8731 18.3335 12.5 18.7066 12.5 19.1668C12.5 19.627 12.8731 20.0002 13.3333 20.0002H16.6667C19.7607 20.0002 21.0352 22.2784 22.4007 25.0002C21.0352 27.7219 19.7607 30.0002 16.6667 30.0002H13.3333C12.8731 30.0002 12.5 30.3733 12.5 30.8335C12.5 31.2937 12.8731 31.6668 13.3333 31.6668H16.6667C20.2401 31.6668 21.9918 29.3194 23.3333 26.8235C24.6749 29.3194 26.4266 31.6668 30 31.6668H34.655L32.7441 33.5777C32.5277 33.7868 32.4406 34.0969 32.5171 34.3882C32.5932 34.6795 32.8206 34.907 33.112 34.9831C33.4033 35.0596 33.7134 34.9725 33.9225 34.756L37.2559 31.4227C37.3336 31.345 37.395 31.2526 37.4365 31.1509C37.5208 30.947 37.5208 30.7184 37.4365 30.5145C37.395 30.4128 37.3336 30.3204 37.2559 30.2427L33.9225 26.9094C33.5954 26.5936 33.0758 26.5981 32.7543 26.9195C32.4329 27.241 32.4284 27.7606 32.7441 28.0877L34.655 30.0002H30C26.9059 30.0002 25.6315 27.7219 24.266 25.0002C25.6315 22.2784 26.9059 20.0002 30 20.0002H34.655L32.7441 21.911C32.419 22.2365 32.419 22.7638 32.7441 23.0894Z" fill="#4E4E51"/>
</svg>
