<svg width="50" height="50" viewBox="0 0 50 50" fill="none" xmlns="http://www.w3.org/2000/svg">
<path d="M34.6318 10.5547C35.2621 10.5544 35.8729 10.3355 36.3599 9.93534C36.847 9.5352 37.1803 8.97855 37.3029 8.36025C37.4256 7.74195 37.33 7.10025 37.0326 6.54448C36.7352 5.98872 36.2543 5.55327 35.6718 5.31234C35.0893 5.07141 34.4413 5.0399 33.8382 5.22319C33.235 5.40647 32.7141 5.79321 32.3642 6.3175C32.0142 6.84179 31.8569 7.4712 31.919 8.09848C31.9811 8.72576 32.2588 9.31211 32.7047 9.75761C32.9576 10.0108 33.2581 10.2116 33.5888 10.3484C33.9195 10.4851 34.2739 10.5553 34.6318 10.5547ZM33.8092 7.00752C33.9719 6.84481 34.1792 6.734 34.4049 6.68911C34.6306 6.64421 34.8645 6.66725 35.0771 6.7553C35.2897 6.84335 35.4714 6.99246 35.5992 7.18378C35.727 7.3751 35.7953 7.60003 35.7953 7.83013C35.7953 8.06022 35.727 8.28515 35.5992 8.47647C35.4714 8.66779 35.2897 8.8169 35.0771 8.90495C34.8645 8.993 34.6306 9.01604 34.4049 8.97114C34.1792 8.92625 33.9719 8.81544 33.8092 8.65273C33.7008 8.54494 33.6147 8.41677 33.556 8.2756C33.4973 8.13442 33.467 7.98303 33.467 7.83013C33.467 7.67722 33.4973 7.52583 33.556 7.38466C33.6147 7.24348 33.7008 7.11531 33.8092 7.00752Z" fill="white"/>
<path d="M10.7876 10.3974C10.859 10.5008 10.9537 10.586 11.0642 10.646C11.1746 10.7059 11.2977 10.7389 11.4233 10.7424H27.2227C27.6952 11.7964 28.4166 12.7198 29.325 13.4332C30.2333 14.1466 31.3013 14.6287 32.4372 14.8379C33.5731 15.0472 34.7429 14.9773 35.8458 14.6344C36.9487 14.2915 37.9518 13.6858 38.7688 12.8694C39.5105 12.1302 40.0799 11.2364 40.4364 10.2519C40.7929 9.26735 40.9278 8.21627 40.8314 7.17361C40.735 6.13095 40.4097 5.1224 39.8788 4.21991C39.3478 3.31741 38.6242 2.5432 37.7597 1.95249C36.8951 1.36178 35.9108 0.969136 34.877 0.802553C33.8433 0.635969 32.7855 0.699555 31.7791 0.988775C30.7727 1.27799 29.8426 1.78572 29.055 2.47574C28.2674 3.16577 27.6418 4.02108 27.2227 4.98068H21.0016C20.8807 4.97848 20.7611 5.00456 20.6521 5.05685L19.6198 5.56662H18.6516L17.4752 4.06213C17.4091 3.97679 17.326 3.90609 17.2312 3.85452C17.1363 3.80295 17.0318 3.77163 16.9243 3.76253C16.8167 3.75343 16.7084 3.76676 16.6063 3.80168C16.5041 3.83659 16.4103 3.89232 16.3308 3.96535L14.9022 5.28342L13.3856 3.95109C13.2309 3.81513 13.0287 3.7458 12.8231 3.75818C12.6174 3.77057 12.425 3.86366 12.2877 4.01721L9.34432 7.30949C9.22599 7.44351 9.15635 7.61355 9.14667 7.79207C9.137 7.97059 9.18785 8.14716 9.291 8.29318L10.7876 10.3974ZM29.8046 3.90031C30.5818 3.12307 31.5721 2.59376 32.6502 2.37932C33.7282 2.16488 34.8457 2.27494 35.8612 2.69558C36.8767 3.11622 37.7447 3.82856 38.3554 4.7425C38.9661 5.65645 39.292 6.73095 39.292 7.83015C39.292 8.92934 38.9661 10.0038 38.3554 10.9178C37.7447 11.8317 36.8767 12.5441 35.8612 12.9647C34.8457 13.3854 33.7282 13.4954 32.6502 13.281C31.5721 13.0665 30.5818 12.5372 29.8046 11.76C29.2841 11.2464 28.8709 10.6345 28.5888 9.95989C28.3068 9.28527 28.1615 8.56135 28.1615 7.83015C28.1615 7.09894 28.3068 6.37502 28.5888 5.7004C28.8709 5.02579 29.2841 4.41392 29.8046 3.90031ZM12.9365 5.63566L14.3999 6.92062C14.5449 7.04787 14.7319 7.11695 14.9248 7.11455C15.1178 7.11215 15.303 7.03845 15.4448 6.90764L16.7687 5.68557L17.6574 6.82336C17.7301 6.9173 17.8231 6.99359 17.9294 7.04654C18.0357 7.09948 18.1526 7.12772 18.2714 7.12912H19.8046C19.9254 7.13133 20.0451 7.10524 20.154 7.05295L21.186 6.54318H26.7395C26.5778 7.41465 26.5778 8.30844 26.7395 9.1799H11.8254L10.9259 7.90266L12.9365 5.63566Z" fill="white"/>
<path fill-rule="evenodd" clip-rule="evenodd" d="M17.8696 40.0123C17.7551 40.0107 17.6415 40.0316 17.5353 40.0737C17.4291 40.1159 17.3325 40.1784 17.251 40.2578C17.1695 40.3372 17.1047 40.4317 17.0606 40.536C17.0164 40.6403 16.9937 40.7522 16.9937 40.8652C16.9937 40.9783 17.0164 41.0902 17.0606 41.1945C17.1047 41.2987 17.1695 41.3933 17.251 41.4727C17.3325 41.552 17.4291 41.6146 17.5353 41.6567C17.6415 41.6989 17.7551 41.7198 17.8696 41.7182H32.1319C32.2463 41.7198 32.36 41.6989 32.4662 41.6567C32.5724 41.6146 32.669 41.552 32.7505 41.4727C32.832 41.3933 32.8967 41.2987 32.9409 41.1945C32.9851 41.0902 33.0078 40.9783 33.0078 40.8652C33.0078 40.7522 32.9851 40.6403 32.9409 40.536C32.8967 40.4317 32.832 40.3372 32.7505 40.2578C32.669 40.1784 32.5724 40.1159 32.4662 40.0737C32.36 40.0316 32.2463 40.0107 32.1319 40.0123H17.8696Z" fill="white"/>
<path fill-rule="evenodd" clip-rule="evenodd" d="M17.8696 36.3634C17.7551 36.3618 17.6415 36.3826 17.5353 36.4248C17.4291 36.4669 17.3325 36.5295 17.251 36.6089C17.1695 36.6882 17.1047 36.7828 17.0606 36.8871C17.0164 36.9914 16.9937 37.1033 16.9937 37.2163C16.9937 37.3293 17.0164 37.4413 17.0606 37.5455C17.1047 37.6498 17.1695 37.7444 17.251 37.8237C17.3325 37.9031 17.4291 37.9657 17.5353 38.0078C17.6415 38.05 17.7551 38.0708 17.8696 38.0692H32.1319C32.2463 38.0708 32.36 38.05 32.4662 38.0078C32.5724 37.9657 32.669 37.9031 32.7505 37.8237C32.832 37.7444 32.8967 37.6498 32.9409 37.5455C32.9851 37.4413 33.0078 37.3293 33.0078 37.2163C33.0078 37.1033 32.9851 36.9914 32.9409 36.8871C32.8967 36.7828 32.832 36.6882 32.7505 36.6089C32.669 36.5295 32.5724 36.4669 32.4662 36.4248C32.36 36.3826 32.2463 36.3618 32.1319 36.3634H17.8696Z" fill="white"/>
<path fill-rule="evenodd" clip-rule="evenodd" d="M13.4977 22.8591C13.3796 22.8934 13.2691 22.953 13.176 23.0326C13.083 23.1121 13.0075 23.2116 12.9562 23.3221L10.5555 28.4952C9.87255 28.249 9.17676 28.0325 8.40765 28.0916C7.88411 28.1318 7.31286 28.3689 6.91287 28.8114C6.52661 29.2387 6.29096 29.7971 6.13788 30.4955C5.90423 31.1214 6.02444 31.8153 6.32749 32.2839C6.64501 32.7749 7.08477 33.0885 7.50878 33.3339C7.76385 33.4816 8.02191 33.604 8.25867 33.7036C7.99811 34.2926 7.74101 34.9659 7.50813 35.5923C7.14091 36.5799 6.85876 37.4199 6.85876 37.4199C6.82482 37.5208 6.81022 37.6281 6.81597 37.7343C6.8943 39.175 6.81778 41.5624 7.05161 43.1411V48.8741C7.05161 48.9857 7.07411 49.0974 7.11738 49.2005C7.16064 49.3036 7.22464 49.3983 7.30457 49.4772C7.38454 49.5562 7.48032 49.6194 7.58478 49.6621C7.68919 49.7048 7.8022 49.727 7.91525 49.727H12.8682C12.9813 49.727 13.0943 49.7049 13.1987 49.6621C13.3031 49.6194 13.3989 49.5562 13.4789 49.4772C13.5588 49.3983 13.6228 49.3036 13.6661 49.2005C13.7093 49.0974 13.7318 48.9857 13.7318 48.8741V46.2769C17.0055 46.6919 21.1069 46.8141 24.9937 46.7931C24.9968 46.7931 25 46.7931 25.0032 46.7931C28.8914 46.814 32.9921 46.6918 36.2651 46.277V48.8741C36.2651 48.9857 36.2876 49.0974 36.3308 49.2005C36.3741 49.3036 36.4381 49.3983 36.518 49.4772C36.598 49.5562 36.6938 49.6194 36.7982 49.6621C36.9026 49.7048 37.0156 49.727 37.1287 49.727H42.0817C42.1947 49.727 42.3077 49.7049 42.4121 49.6621C42.5166 49.6194 42.6124 49.5562 42.6923 49.4772C42.7723 49.3983 42.8363 49.3036 42.8795 49.2005C42.9228 49.0974 42.9453 48.9857 42.9453 48.8741V43.1425C43.184 41.5611 43.1067 39.1748 43.181 37.7319C43.1864 37.6268 43.1719 37.5208 43.1385 37.4208C43.1385 37.4208 42.8572 36.5805 42.4905 35.5926C42.2579 34.966 42.0011 34.2926 41.7397 33.703C41.9761 33.6035 42.2337 33.4813 42.4883 33.3341C42.9125 33.0888 43.3525 32.7753 43.6706 32.2849C43.9744 31.8167 44.0963 31.1229 43.8636 30.4963C43.7105 29.7975 43.4749 29.2388 43.0884 28.8114C42.6884 28.3689 42.1171 28.1318 41.5935 28.0916C40.8244 28.0325 40.1288 28.249 39.4458 28.4952L37.0451 23.3221C36.9938 23.2116 36.9183 23.1121 36.8252 23.0326C36.7321 22.953 36.6216 22.8934 36.5035 22.8591C28.392 21.0773 22.5193 20.4354 13.4977 22.8591ZM35.6428 24.3947L38.2079 29.9224C38.2522 30.018 38.3146 30.1053 38.3909 30.1785C38.4671 30.2518 38.5572 30.3109 38.6551 30.352C38.753 30.3929 38.8586 30.4161 38.965 30.4196C39.0713 30.4239 39.1782 30.4068 39.2786 30.3721C40.2547 30.0344 41.0963 29.7645 41.4597 29.7924C41.6414 29.8064 41.6897 29.8256 41.8 29.9475C41.9103 30.0695 42.0725 30.3596 42.1876 30.9132C42.1992 30.9687 42.2163 31.0231 42.2388 31.0753C42.3149 31.252 42.2995 31.2363 42.2162 31.3647C42.1329 31.4931 41.9043 31.695 41.6156 31.8619C41.0381 32.1959 40.3201 32.3906 40.3201 32.3906C40.1921 32.4235 40.0721 32.4858 39.9721 32.5713C39.8722 32.6567 39.7925 32.7652 39.7413 32.8855C39.6901 33.0058 39.6673 33.1379 39.6753 33.2683C39.6834 33.3985 39.7223 33.5269 39.788 33.6402C40.0488 34.0898 40.5127 35.2209 40.8688 36.1799C41.1347 36.8963 41.3543 37.5323 41.4486 37.8089C41.3777 39.3949 41.4166 41.7052 41.2347 42.9052C41.2308 42.924 41.228 42.9432 41.2255 42.962C41.2155 43.0058 41.1797 43.0845 41.0141 43.2204C40.8306 43.3711 40.5025 43.5552 40.0584 43.7243C39.1702 44.0627 37.8344 44.3493 36.2534 44.5584C33.0916 44.9765 28.9356 45.1087 25.0032 45.0872C25 45.0872 24.9969 45.0872 24.9937 45.0872C21.0635 45.1089 16.9075 44.9765 13.7451 44.5584C12.1638 44.3493 10.8276 44.0625 9.93896 43.7242C9.49466 43.555 9.16635 43.371 8.98279 43.2203C8.81766 43.0848 8.78165 43.0061 8.77146 42.9624C8.76891 42.9411 8.76558 42.9202 8.76144 42.899C8.58426 41.6944 8.62351 39.3927 8.54864 37.8084C8.64351 37.5311 8.86348 36.8961 9.12961 36.1804C9.48629 35.221 9.94976 34.0898 10.2101 33.638C10.2753 33.5248 10.3138 33.3965 10.3216 33.2664C10.3294 33.1363 10.3064 33.0045 10.2551 32.8844C10.2037 32.7643 10.1241 32.6562 10.0242 32.5709C9.92441 32.4856 9.80449 32.4235 9.67676 32.3906C9.67676 32.3906 8.95869 32.1959 8.382 31.8622C8.09367 31.6953 7.86576 31.4934 7.78311 31.3656C7.70046 31.2379 7.68487 31.2542 7.76165 31.077C7.78449 31.0243 7.80189 30.9693 7.8136 30.9132C7.92872 30.3596 8.09104 30.0695 8.20133 29.9475C8.31157 29.8255 8.35993 29.8063 8.54164 29.7924C8.90502 29.7646 9.74654 30.0344 10.7226 30.3721C10.823 30.4066 10.9299 30.423 11.0362 30.4196C11.1425 30.4153 11.2482 30.3932 11.3461 30.352C11.4439 30.3111 11.5341 30.2518 11.6103 30.1785C11.6865 30.1053 11.7489 30.018 11.7932 29.9224L14.3585 24.3946C21.7599 22.6698 27.9218 22.392 35.6428 24.3947ZM8.77888 45.0873C8.94993 45.1683 9.12909 45.2441 9.31758 45.3158C10.0762 45.6047 10.9815 45.8315 12.0046 46.0159V48.0211H8.77888V45.0873ZM41.218 45.0875V48.0211H37.9923V46.0162C39.0158 45.8317 39.9212 45.6049 40.68 45.3158C40.8682 45.2442 41.0471 45.1684 41.218 45.0875Z" fill="white"/>
<path fill-rule="evenodd" clip-rule="evenodd" d="M36.9181 35.6006C35.2957 35.6006 33.9619 36.9202 33.9619 38.5251C33.9619 40.1327 35.2957 41.4539 36.9181 41.4539C38.5431 41.4539 39.8788 40.1327 39.8788 38.5251C39.8788 36.9202 38.5431 35.6006 36.9181 35.6006ZM36.9181 37.3065C37.6095 37.3065 38.1515 37.8418 38.1515 38.5251C38.1515 39.2145 37.6095 39.748 36.9181 39.748C36.2329 39.748 35.6892 39.2145 35.6892 38.5251C35.6892 37.8418 36.2329 37.3065 36.9181 37.3065Z" fill="white"/>
<path fill-rule="evenodd" clip-rule="evenodd" d="M13.0788 35.6006C11.4538 35.6006 10.1226 36.9223 10.1226 38.5251C10.1226 40.1305 11.4538 41.4539 13.0788 41.4539C14.7038 41.4539 16.0394 40.1327 16.0394 38.5251C16.0394 36.9202 14.7038 35.6006 13.0788 35.6006ZM13.0788 37.3065C13.7701 37.3065 14.3121 37.8418 14.3121 38.5251C14.3121 39.2145 13.7701 39.748 13.0788 39.748C12.3874 39.748 11.8498 39.2166 11.8498 38.5251C11.8498 37.8397 12.3874 37.3065 13.0788 37.3065Z" fill="white"/>
</svg>
