<svg width="50" height="50" viewBox="0 0 50 50" fill="none" xmlns="http://www.w3.org/2000/svg">
<path d="M25.8337 13.3335H14.167V25.0002H25.8337V13.3335ZM24.167 23.3335H15.8337V15.0002H24.167V23.3335Z" fill="white"/>
<path d="M43.3337 13.3335H30.0003C29.5395 13.3335 29.167 13.706 29.167 14.1668C29.167 14.6277 29.5395 15.0002 30.0003 15.0002H43.3337C43.7945 15.0002 44.167 14.6277 44.167 14.1668C44.167 13.706 43.7945 13.3335 43.3337 13.3335Z" fill="white"/>
<path d="M43.3337 18.3335H30.0003C29.5395 18.3335 29.167 18.706 29.167 19.1668C29.167 19.6277 29.5395 20.0002 30.0003 20.0002H43.3337C43.7945 20.0002 44.167 19.6277 44.167 19.1668C44.167 18.706 43.7945 18.3335 43.3337 18.3335Z" fill="white"/>
<path d="M43.3337 23.3335H30.0003C29.5395 23.3335 29.167 23.706 29.167 24.1668C29.167 24.6277 29.5395 25.0002 30.0003 25.0002H43.3337C43.7945 25.0002 44.167 24.6277 44.167 24.1668C44.167 23.706 43.7945 23.3335 43.3337 23.3335Z" fill="white"/>
<path d="M43.3333 28.3335H15.8333C15.3725 28.3335 15 28.706 15 29.1668C15 29.6277 15.3725 30.0002 15.8333 30.0002H43.3333C43.7942 30.0002 44.1667 29.6277 44.1667 29.1668C44.1667 28.706 43.7942 28.3335 43.3333 28.3335Z" fill="white"/>
<path d="M28.3333 33.3335H15.8333C15.3725 33.3335 15 33.706 15 34.1668C15 34.6277 15.3725 35.0001 15.8333 35.0001H28.3333C28.7942 35.0001 29.1667 34.6277 29.1667 34.1668C29.1667 33.706 28.7942 33.3335 28.3333 33.3335Z" fill="white"/>
<path d="M28.3333 38.3335H15.8333C15.3725 38.3335 15 38.706 15 39.1668C15 39.6277 15.3725 40.0002 15.8333 40.0002H28.3333C28.7942 40.0002 29.1667 39.6277 29.1667 39.1668C29.1667 38.706 28.7942 38.3335 28.3333 38.3335Z" fill="white"/>
<path d="M28.3333 43.3335H15.8333C15.3725 43.3335 15 43.706 15 44.1668C15 44.6277 15.3725 45.0002 15.8333 45.0002H28.3333C28.7942 45.0002 29.1667 44.6277 29.1667 44.1668C29.1667 43.706 28.7942 43.3335 28.3333 43.3335Z" fill="white"/>
<path d="M32.5 45.0001H44.1667V33.3335H32.5V45.0001ZM34.1667 35.0002H42.5V43.3335H34.1667V35.0002Z" fill="white"/>
<path d="M49.1668 10.8333C49.1668 10.8192 49.1593 10.8075 49.1585 10.7933V0H9.16683V25H0.833496V45C0.833496 47.7575 3.076 50 5.8335 50H44.1668C46.9193 50 49.1585 47.76 49.1585 45.0083V10.8733C49.1593 10.8592 49.1668 10.8475 49.1668 10.8333ZM47.4918 1.66667V10H10.8335V1.66667H47.4918ZM2.50016 45V26.6667H9.16683V45C9.16683 46.8383 7.67183 48.3333 5.8335 48.3333C3.99516 48.3333 2.50016 46.8383 2.50016 45ZM44.1668 48.3333H9.55766C9.57099 48.3183 9.58016 48.3008 9.59266 48.2858C9.76266 48.0917 9.91766 47.8842 10.056 47.665C10.0785 47.63 10.0993 47.595 10.121 47.5583C10.256 47.3333 10.3752 47.0983 10.4735 46.8517C10.4868 46.8175 10.4985 46.7833 10.511 46.7492C10.6068 46.4942 10.6852 46.2308 10.7385 45.9583C10.7435 45.9333 10.7452 45.9075 10.7502 45.8833C10.8018 45.5967 10.8335 45.3017 10.8335 45V25V11.6667H47.4918V45.0083C47.4918 46.8417 46.0002 48.3333 44.1668 48.3333Z" fill="white"/>
<path d="M39.167 3.3335H19.167V8.3335H39.167V3.3335ZM37.5003 6.66683H20.8337V5.00016H37.5003V6.66683Z" fill="white"/>
</svg>
