<svg width="76" height="30" viewBox="0 0 76 30" fill="none" xmlns="http://www.w3.org/2000/svg">
<g clip-path="url(#clip0)">
<path d="M60.0699 1.27361C60.0699 1.27361 60.7378 -0.0854367 62.6094 -1.08851e-05C62.6094 -1.08851e-05 63.1841 0.691162 62.5162 1.42893C61.8484 2.17446 60.0699 1.27361 60.0699 1.27361Z" fill="#100607"/>
<path d="M75.6408 16.8755C75.5942 16.7435 75.5398 16.6503 75.4777 16.5882C74.903 16.0678 74.8176 15.5708 74.8176 15.5708V12.8372C74.8176 12.0994 73.1246 12.1538 71.284 11.6179C69.4435 11.0821 68.6048 9.65312 68.6358 9.17163C68.6669 8.69014 69.6376 8.39503 72.014 8.54259C74.3827 8.69014 74.0254 8.31737 74.0254 8.31737C72.713 7.57184 73.1168 8.15429 70.6472 7.15248C68.1776 6.15066 65.9643 3.87523 65.9643 3.87523C65.9643 3.87523 69.2338 2.50841 68.7989 2.05799C68.364 1.60756 58.874 0.799896 50.1373 0.799896C41.4083 0.799896 38.232 1.1183 36.2128 1.40564C34.1937 1.69299 27.3752 4.38002 24.6804 6.50013C21.9856 8.62801 18.7937 9.60653 18.32 9.81621C17.8463 10.0181 13.9711 10.4686 9.0552 11.3539C4.13933 12.2392 2.17454 13.8079 2.17454 13.8079C2.17454 13.8079 0.784424 15.0893 0.178677 18.2501C0.0932513 18.6772 0.0466554 19.0655 0.0233574 19.4227C-0.139728 21.6982 0.722296 22.568 0.885382 22.8708C1.07953 23.2203 0.590274 23.6008 0.590274 23.6008C0.0544214 23.9192 0.0777193 24.1678 0.0777193 24.1678C0.0466554 25.1929 6.71764 26.0627 6.71764 26.0627C6.71764 26.0627 5.66923 15.9591 13.9866 16.1921C22.304 16.4251 21.5895 25.7365 21.5895 25.7365L22.5602 25.721C22.8787 25.488 23.4844 25.2395 24.626 25.1152C27.1422 24.8512 51.2944 24.1212 52.304 24.3386C52.7544 24.4396 52.9796 24.8434 53.0883 25.2472L54.129 25.2317C54.129 25.2317 53.632 14.4758 61.9183 15.167C70.2046 15.8582 69.1173 24.0202 69.1173 24.0202C69.692 23.6707 72.1072 23.1116 72.8994 22.9174C73.6915 22.7233 75.0583 21.2167 75.4854 21.0381C75.8582 20.8827 76.0135 17.9006 75.6408 16.8755Z" fill="#353544"/>
<path d="M52.5136 23.6707C52.5525 23.8027 54.1212 25.2394 54.1212 25.2394C54.1212 25.2394 55.7986 25.2783 56.2568 24.9987C56.7073 24.7191 67.401 23.9658 67.401 23.9658C67.401 23.9658 68.9309 24.2376 69.3192 23.9114C69.7075 23.5853 71.2452 16.7823 71.2452 16.7823L60.2718 12.0916C60.2718 12.0994 50.7585 17.7996 52.5136 23.6707Z" fill="#040402"/>
<path d="M68.2786 2.20554C68.2786 2.20554 68.7445 1.97256 68.8222 2.20554C68.8999 2.43852 68.2786 3.32384 71.0433 5.343C73.8157 7.35439 73.4818 8.3795 73.4818 8.3795L65.5061 6.29822C65.5061 6.29822 63.7588 2.70256 68.2786 2.20554Z" fill="#626262"/>
<path d="M72.9692 8.20865C72.9692 8.20865 74.3904 8.20865 74.6545 8.96972C74.9185 9.73078 74.8486 12.8294 74.6545 13.0624C74.4526 13.2954 66.6322 10.2589 66.6322 10.2589C66.6322 10.2589 68.2786 7.45535 72.9692 8.20865Z" fill="#AE222F"/>
<path d="M5.62262 23.6474C5.62262 23.6474 6.32932 26.016 6.71762 26.0704C7.10592 26.1325 8.23199 25.8297 8.58923 25.7753C8.9387 25.7287 18.7316 27.5149 18.7316 27.5149C18.7316 27.5149 21.0692 26.7072 21.8924 25.4336C22.7233 24.1677 23.4766 16.6813 23.4766 16.6813L14.5535 15.1514L10.3754 15.9047L7.28454 18.716L5.62262 23.6474Z" fill="#040402"/>
<path d="M51.4497 24.4007L51.372 24.2842C51.3875 24.2765 52.7155 23.3911 52.9951 22.599C53.0184 22.5291 53.0495 22.4126 53.0961 22.2573C53.329 21.4341 53.8804 19.5004 55.0919 17.753C56.6141 15.5708 58.6487 14.4137 61.1339 14.3127C64.4344 14.1807 66.5079 15.5553 67.665 16.7279C68.7911 17.8695 69.2881 19.05 69.3891 19.2907C71.9053 19.3451 75.6562 19.2053 75.7883 18.5918L75.9203 18.6228C75.8892 18.7704 75.7805 19.2286 72.5266 19.3839C70.9423 19.4616 69.358 19.4227 69.3425 19.4227H69.2959L69.2804 19.3761C69.2726 19.3606 68.8066 18.0637 67.5719 16.8134C66.4303 15.664 64.3956 14.3127 61.1416 14.4447C57.3208 14.5923 54.6648 17.2327 53.2281 22.2961C53.1815 22.4592 53.1504 22.568 53.1271 22.6456C52.832 23.4843 51.504 24.3619 51.4497 24.4007Z" fill="#080705"/>
<path d="M6.37595 18.6306C6.37595 18.6306 8.49607 13.5982 13.5906 14.2583C18.685 14.9185 23.3524 18.6306 23.3524 18.6306C23.3524 18.6306 23.3524 21.0691 34.4888 20.3313C45.6252 19.5858 50.8285 19.0577 50.8285 19.0577C50.8285 19.0577 52.4205 18.4209 47.225 18.5296C42.0296 18.6384 27.7091 18.5296 27.7091 18.5296C27.7091 18.5296 23.3602 17.6133 23.6786 15.2602C23.997 12.9071 34.2869 15.1592 40.9734 14.4603C47.6599 13.7613 55.721 15.2369 55.721 15.2369C55.721 15.2369 59.2235 11.8664 62.7259 12.9226C66.2284 13.971 69.8707 17.3647 70.3288 17.3647C70.7016 17.3647 74.3905 17.7686 75.6641 16.8755C75.6175 16.7435 75.5631 16.6503 75.501 16.5881C74.9263 16.0678 74.8409 15.5708 74.8409 15.5708V12.8372C74.8409 12.0994 73.1479 12.1538 71.3074 11.6179C69.4668 11.0821 68.6281 9.65312 68.6592 9.17163C68.6902 8.69014 69.661 8.39503 72.0374 8.54258C74.406 8.69014 74.0488 8.31737 74.0488 8.31737C72.7363 7.57184 73.1401 8.15428 70.6706 7.15247C68.201 6.15066 65.9877 3.87523 65.9877 3.87523C65.9877 3.87523 69.2571 2.50841 68.8223 2.05799C68.3874 1.60756 58.8973 0.799896 50.1606 0.799896C41.4316 0.799896 38.2553 1.1183 36.2362 1.40564C34.217 1.69298 27.3985 4.38002 24.7037 6.50013C22.0089 8.62801 18.8171 9.60652 18.3433 9.81621C17.8696 10.0181 13.9944 10.4685 9.07852 11.3539C4.13935 12.2392 2.17455 13.8079 2.17455 13.8079C2.17455 13.8079 0.784443 15.0893 0.178696 18.2501C0.0932703 18.6772 0.0466744 19.0655 0.0233765 19.4227C1.31253 18.9412 4.27137 17.986 6.37595 18.6306Z" fill="#E1E1E1"/>
<path d="M70.3133 17.357C69.8551 17.357 66.205 13.9632 62.7104 12.9148C59.2079 11.8664 55.7054 15.2291 55.7054 15.2291C55.7054 15.2291 47.6443 13.7458 40.9578 14.4525C34.2713 15.1514 23.9814 12.8993 23.663 15.2524C23.3446 17.6055 27.6935 18.5219 27.6935 18.5219C27.6935 18.5219 42.014 18.6306 47.2095 18.5219C52.4049 18.4131 50.8129 19.0499 50.8129 19.0499C50.8129 19.0499 45.6174 19.578 34.4732 20.3236C23.3368 21.0691 23.3368 18.6228 23.3368 18.6228C23.3368 18.6228 18.6695 14.9107 13.575 14.2506C8.48048 13.5904 6.36037 18.6228 6.36037 18.6228C4.26355 17.9782 1.29695 18.9257 0.00779348 19.4227C-0.155292 21.6981 0.706732 22.5679 0.869818 22.8708C1.06397 23.2203 0.57471 23.6008 0.57471 23.6008C0.0388574 23.9192 0.0621554 24.1677 0.0621554 24.1677C0.0310914 25.1928 6.70207 26.0626 6.70207 26.0626C6.70207 26.0626 5.6692 15.9591 13.9866 16.1921C22.3039 16.425 21.5895 25.7365 21.5895 25.7365L22.5602 25.7209C22.8786 25.488 23.4844 25.2394 24.626 25.1152C27.1421 24.8511 51.2944 24.1211 52.3039 24.3386C52.7544 24.4395 52.9796 24.8434 53.0883 25.2472L54.1289 25.2317C54.1289 25.2317 53.6319 14.4758 61.9182 15.1669C70.2045 15.8581 69.1173 24.0202 69.1173 24.0202C69.692 23.6707 72.1072 23.1116 72.8993 22.9174C73.6915 22.7233 75.0583 21.2167 75.4854 21.038C75.8659 20.8749 76.029 17.8928 75.6485 16.8677C74.3671 17.7608 70.686 17.357 70.3133 17.357Z" fill="#C3C3CB"/>
<path d="M52.2962 24.3464C51.2866 24.1212 27.1344 24.8589 24.6182 25.123C23.4766 25.2395 22.8708 25.488 22.5524 25.7287L53.0805 25.2628C52.9796 24.8434 52.7544 24.4473 52.2962 24.3464Z" fill="#040402"/>
<path d="M1.17269 16.658C1.17269 16.658 1.1028 15.198 2.43855 14.2118C3.7743 13.2255 9.27262 11.7111 9.66091 12.1693C10.0492 12.6275 8.44165 13.2643 7.99123 13.6837C7.5408 14.103 5.16441 16.5415 3.95292 16.658C2.74142 16.7745 1.06397 17.4968 1.17269 16.6969" fill="#C5BBAC"/>
<path d="M0.450441 20.0906C0.341717 19.9896 0.256291 19.811 0.68342 19.7334C1.11055 19.6557 2.31428 19.5703 2.31428 19.5703C2.31428 19.5703 2.81907 19.5314 3.21513 20.0984C3.60343 20.6653 4.05386 21.7447 4.05386 21.7447C4.05386 21.7447 4.55865 22.5835 3.77428 22.5912C2.98215 22.599 1.00183 22.5912 1.00183 22.5912C1.00183 22.5912 1.44449 22.3583 1.35129 21.9311C1.26587 21.504 0.893102 20.3313 0.893102 20.3313C0.893102 20.3313 0.559164 20.1915 0.450441 20.0906Z" fill="#D2CCCE"/>
<path d="M1.02515 20.044L1.85611 21.9855C1.85611 21.9855 1.96483 22.2573 2.43079 22.2185C2.89675 22.1797 3.64229 22.2806 3.64229 22.2806C3.64229 22.2806 3.90633 22.3661 3.64229 21.869C3.37824 21.372 2.58611 19.9897 2.58611 19.9897C2.58611 19.9897 2.57835 19.9275 2.12015 19.8887C1.66196 19.8499 0.893127 19.9974 0.893127 19.9974C0.893127 19.9974 0.916425 20.0751 1.02515 20.044Z" fill="#1B1A20"/>
<path d="M21.108 10.3443C21.108 10.3443 25.9073 6.70203 28.7109 5.28862C31.5066 3.87521 33.0831 3.09084 36.9195 2.43073C40.7559 1.77062 44.8796 1.96477 44.8796 1.96477H53.5309C53.5309 1.96477 59.9689 2.06573 61.46 3.00542C62.9433 3.9451 63.9218 4.89255 63.7743 5.35075C63.6267 5.80894 61.3979 7.47086 59.7515 7.70384C58.0973 7.94459 46.2697 9.17938 46.2697 9.17938L34.5509 10.2511L22.1331 11.1985C22.1331 11.1985 21.0536 11.3927 20.9138 10.8957C20.8128 10.5773 21.108 10.3443 21.108 10.3443Z" fill="#626262"/>
<path d="M23.1893 11.1675L23.8804 8.93863C23.8804 8.93863 28.7342 5.58372 30.1165 5.03233C31.4989 4.48095 35.1023 2.55498 42.3324 2.70254C42.3324 2.70254 48.4132 2.24434 55.7443 2.43849L57.6392 7.90575L58.2838 7.80479L55.954 2.11232C55.954 2.11232 37.9835 1.27359 32.9356 3.40148C27.8877 5.52936 20.3158 10.1346 21.007 11.0277L23.1893 11.1675Z" fill="#282C38"/>
<path d="M41.0821 2.42297L39.3347 9.723L43.1323 9.38129V2.40744L41.0821 2.42297Z" fill="#E1E1E1"/>
<path d="M53.9037 8.38725L53.6086 8.37172L53.9736 2.39191L54.2688 2.29095L53.9037 8.38725Z" fill="#292C3B"/>
<path d="M55.9695 2.3919C55.9695 2.3919 56.7772 2.37637 57.4761 2.43073C58.175 2.49286 59.9845 2.47733 61.7319 3.67329C63.4792 4.86926 63.3006 5.79341 63.2229 5.94096C63.1453 6.08852 63.5258 5.83224 63.5258 5.83224L63.6035 5.20319L62.2833 3.47138L60.2175 2.56276L55.7598 2.0502L55.9695 2.3919Z" fill="#292C3B"/>
<path d="M58.9128 2.43853C58.9128 2.43853 61.0018 2.57832 62.5861 4.2713C63.8442 5.61482 63.4093 5.90216 62.5861 6.46907C61.7629 7.03599 60.334 7.63397 60.334 7.63397C60.334 7.63397 63.7588 6.5545 64.0228 5.51386C64.2869 4.47322 62.2522 2.36863 58.9128 2.43853Z" fill="#D8D6E1"/>
<path d="M14.0332 30C17.6746 30 20.6265 27.0481 20.6265 23.4067C20.6265 19.7653 17.6746 16.8134 14.0332 16.8134C10.3918 16.8134 7.43988 19.7653 7.43988 23.4067C7.43988 27.0481 10.3918 30 14.0332 30Z" fill="#27262C"/>
<path d="M14.0487 28.3924C16.8022 28.3924 19.0345 26.1602 19.0345 23.4067C19.0345 20.6531 16.8022 18.4209 14.0487 18.4209C11.2951 18.4209 9.06293 20.6531 9.06293 23.4067C9.06293 26.1602 11.2951 28.3924 14.0487 28.3924Z" fill="#C3BFBE"/>
<path d="M12.3169 20.0673L13.4662 21.3798C13.4662 21.3798 13.6682 21.6982 13.94 21.6982C14.2118 21.6982 14.4137 21.4807 14.4137 21.4807L15.6174 20.0751C15.6174 20.0751 15.7883 19.8731 15.6174 19.7411C15.4466 19.6013 14.8641 19.4072 14.0409 19.4072C13.2333 19.3917 12.0218 19.6169 12.3169 20.0673Z" fill="#27262C"/>
<path d="M12.3169 26.7461L13.4662 25.4336C13.4662 25.4336 13.6682 25.123 13.94 25.123C14.2118 25.123 14.4137 25.3404 14.4137 25.3404L15.6174 26.7461C15.6174 26.7461 15.7883 26.948 15.6174 27.08C15.4466 27.2198 14.8641 27.4139 14.0409 27.4139C13.2333 27.4217 12.0218 27.1965 12.3169 26.7461Z" fill="#27262C"/>
<path d="M17.4269 21.7369L16.1144 22.8863C16.1144 22.8863 15.796 23.0882 15.796 23.36C15.796 23.6318 16.0135 23.8337 16.0135 23.8337L17.4191 25.0375C17.4191 25.0375 17.621 25.2083 17.7531 25.0375C17.8928 24.8666 18.087 24.2842 18.087 23.461C18.1025 22.6533 17.8773 21.4496 17.4269 21.7369Z" fill="#27262C"/>
<path d="M10.7481 21.7369L12.0606 22.8863C12.0606 22.8863 12.379 23.0882 12.379 23.36C12.379 23.6318 12.1615 23.8337 12.1615 23.8337L10.7559 25.0375C10.7559 25.0375 10.554 25.2083 10.422 25.0375C10.2822 24.8666 10.088 24.2842 10.088 23.461C10.0725 22.6533 10.2977 21.4496 10.7481 21.7369Z" fill="#27262C"/>
<path d="M61.6309 29.2234C65.2722 29.2234 68.2242 26.2715 68.2242 22.6301C68.2242 18.9887 65.2722 16.0367 61.6309 16.0367C57.9895 16.0367 55.0375 18.9887 55.0375 22.6301C55.0375 26.2715 57.9895 29.2234 61.6309 29.2234Z" fill="#27262C"/>
<path d="M61.6464 27.6158C64.4 27.6158 66.6322 25.3836 66.6322 22.63C66.6322 19.8765 64.4 17.6443 61.6464 17.6443C58.8928 17.6443 56.6606 19.8765 56.6606 22.63C56.6606 25.3836 58.8928 27.6158 61.6464 27.6158Z" fill="#C3BFBE"/>
<path d="M59.9146 19.2829L61.0717 20.5954C61.0717 20.5954 61.2737 20.906 61.5455 20.906C61.8173 20.906 62.0192 20.6886 62.0192 20.6886L63.2229 19.2829C63.2229 19.2829 63.3938 19.081 63.2229 18.949C63.0521 18.8092 62.4696 18.6151 61.6464 18.6151C60.831 18.6151 59.6195 18.8325 59.9146 19.2829Z" fill="#27262C"/>
<path d="M59.9146 25.9695L61.064 24.657C61.064 24.657 61.2659 24.3464 61.5377 24.3464C61.8095 24.3464 62.0114 24.5638 62.0114 24.5638L63.2152 25.9695C63.2152 25.9695 63.386 26.1714 63.2152 26.3034C63.0443 26.4432 62.4619 26.6373 61.6387 26.6373C60.831 26.6373 59.6195 26.4199 59.9146 25.9695Z" fill="#27262C"/>
<path d="M65.0323 20.9604L63.7199 22.1175C63.7199 22.1175 63.4015 22.3194 63.4015 22.5912C63.4015 22.863 63.6189 23.0649 63.6189 23.0649L65.0246 24.2687C65.0246 24.2687 65.2265 24.4395 65.3585 24.2687C65.4983 24.0978 65.6924 23.5154 65.6924 22.6922C65.7002 21.8768 65.4827 20.6653 65.0323 20.9604Z" fill="#27262C"/>
<path d="M58.3459 20.9604L59.6583 22.1175C59.6583 22.1175 59.9767 22.3194 59.9767 22.5912C59.9767 22.863 59.7593 23.0649 59.7593 23.0649L58.3536 24.2687C58.3536 24.2687 58.1517 24.4395 58.0197 24.2687C57.8799 24.0978 57.6857 23.5154 57.6857 22.6922C57.678 21.8768 57.8954 20.6653 58.3459 20.9604Z" fill="#27262C"/>
<path d="M24.0668 25.519C22.731 22.7543 21.9933 20.4245 21.9156 16.029C21.8379 11.4548 23.6319 8.37948 23.6552 8.34842L23.7717 8.41831C23.7561 8.44938 21.97 11.4936 22.0554 16.029C22.133 20.3935 22.863 22.7155 24.191 25.4647L24.0668 25.519Z" fill="#080705"/>
<path d="M41.1675 24.5793C41.1598 24.5638 40.6783 22.7155 40.4453 21.7059C40.2045 20.7041 40.4142 18.8092 40.4142 18.6849V11.416C40.4142 10.8879 41.0666 9.83171 41.1442 9.69969L42.2548 2.0502L42.3946 2.06573L41.2995 9.73852L41.2918 9.75405C41.284 9.76182 40.6006 10.9034 40.6006 11.4082V18.6849C40.6006 18.7082 40.3599 20.673 40.6006 21.6671C40.8413 22.6689 41.2918 24.5172 41.2995 24.5405L41.1675 24.5793Z" fill="#080705"/>
<path d="M58.3381 15.2058L58.2294 15.1204C58.5633 14.6855 58.7653 10.6316 58.7575 9.723C58.7497 8.96193 57.9576 7.92906 57.9498 7.92129L57.9421 7.90576L55.8452 2.32202L55.9695 2.27542L58.0663 7.8514C58.1517 7.96012 58.8895 8.95417 58.8895 9.73077C58.8973 10.2666 58.7342 14.6932 58.3381 15.2058Z" fill="#080705"/>
<path d="M21.6749 11.2995C21.2012 11.2995 20.9061 11.1675 20.8285 10.9112C20.7275 10.5617 21.0459 10.3054 21.0614 10.2899C21.108 10.2511 25.8996 6.62437 28.6721 5.22649C31.4756 3.80532 33.0211 3.02872 36.8963 2.36084C39.2649 1.94924 41.7345 1.90265 43.3886 1.90265C44.2895 1.90265 44.8642 1.96478 44.8719 1.96478H53.5233C53.7873 1.96478 60.0001 2.04244 61.4834 2.98212C62.7415 3.77425 64.0151 4.81489 63.8287 5.38958C63.6734 5.8633 61.4057 7.54075 59.7438 7.7815C58.113 8.01448 46.3785 9.2415 46.2621 9.24927L34.5432 10.3132L22.1331 11.2607C22.1254 11.2607 21.9235 11.2995 21.6749 11.2995ZM43.3964 1.97254C41.75 1.97254 39.2882 2.0735 36.9273 2.4851C33.0754 3.15297 31.53 3.93734 28.742 5.35075C25.9773 6.74862 21.2012 10.3676 21.1546 10.4064C21.1546 10.4064 20.8983 10.6161 20.976 10.8724C21.0459 11.1131 21.3954 11.1597 21.6827 11.1597C21.9157 11.1597 22.1176 11.1286 22.1176 11.1286L34.5354 10.1734L46.2543 9.10172C46.3708 9.08618 58.1052 7.85916 59.736 7.62618C61.398 7.38543 63.5802 5.70798 63.7045 5.31968C63.8365 4.92362 62.8968 3.96063 61.4213 3.02095C59.969 2.10456 53.5931 1.95701 53.531 1.95701H44.8797C44.8642 1.96478 44.2973 1.97254 43.3964 1.97254Z" fill="#D8D6E1"/>
<path d="M6.08853 23.0106H0.854257C0.815427 23.0106 0.784363 22.9718 0.784363 22.9329C0.784363 22.8941 0.815427 22.8553 0.854257 22.8553H6.0264C6.06523 22.467 6.30598 20.8361 7.30779 19.1975C8.3329 17.5123 10.3909 15.4854 14.3593 15.4854C17.722 15.4854 19.6324 17.3259 20.6498 18.8791C21.7448 20.5565 22.0476 22.2573 22.0476 22.2728C22.0554 22.3117 22.0321 22.3427 21.9933 22.3505C21.9544 22.3582 21.9234 22.335 21.9156 22.2961C21.9156 22.2806 21.6127 20.6031 20.5333 18.949C19.5392 17.4268 17.6598 15.6096 14.3593 15.6096C10.453 15.6096 8.43386 17.5822 7.42428 19.2363C6.32928 21.0303 6.15842 22.8863 6.15842 22.9096C6.15842 22.9407 6.12736 23.0106 6.08853 23.0106Z" fill="#080705"/>
<path d="M24.1367 10.9733C24.1367 10.9733 24.5172 8.53479 26.086 8.22415C27.6547 7.91351 27.9498 9.36575 27.9653 9.45895C27.9809 9.55214 28.2605 10.7792 27.0334 10.9733C25.8064 11.1675 24.1212 11.5946 24.1367 10.9733Z" fill="#3A394B"/>
<path d="M34.2791 12.3013C34.2636 11.8897 35.1955 11.6024 36.2672 11.4781C37.3389 11.3616 38.4106 11.4393 38.5038 11.7577C38.597 12.0761 37.6729 12.8449 36.3915 12.8139C35.1179 12.7906 34.2947 12.7129 34.2791 12.3013Z" fill="#100607"/>
<path d="M34.6364 12.3246C34.6364 12.3246 34.7529 11.9674 36.2517 11.781C37.7505 11.5946 38.1311 11.5946 38.1311 11.781C38.1311 11.9674 37.471 12.3091 37.0827 12.3246C36.6944 12.3401 34.5898 12.6818 34.6364 12.3246Z" fill="#E1E1E1"/>
<path d="M52.4592 10.3909C52.4437 9.97927 53.3756 9.69193 54.4473 9.56767C55.519 9.45118 56.5907 9.52885 56.6839 9.84725C56.7771 10.1657 55.853 10.9345 54.5716 10.9034C53.2902 10.8801 52.4748 10.8025 52.4592 10.3909Z" fill="#100607"/>
<path d="M52.8087 10.4142C52.8087 10.4142 52.9252 10.057 54.4241 9.87056C55.9229 9.68418 56.3034 9.68418 56.3034 9.87056C56.3034 10.057 55.6433 10.3987 55.255 10.4142C54.8745 10.4297 52.7621 10.7714 52.8087 10.4142Z" fill="#E1E1E1"/>
</g>
<defs>
<clipPath id="clip0">
<rect width="75.9203" height="30" fill="white"/>
</clipPath>
</defs>
</svg>
