<svg width="54" height="53" viewBox="0 0 54 53" fill="none" xmlns="http://www.w3.org/2000/svg">
<path d="M19.44 32.6833H16.2589L9.27818 39.1317L10.4269 32.6833H2.65091C2.12073 32.6833 1.76727 32.33 1.76727 31.8V7.06669C1.76727 6.53669 2.12073 6.18335 2.65091 6.18335H37.9964C38.5265 6.18335 38.88 6.53669 38.88 7.06669V23.85H40.6473V7.06669C40.6473 5.56502 39.4985 4.41669 37.9964 4.41669H2.65091C1.14873 4.41669 0 5.56502 0 7.06669V31.8C0 33.3017 1.14873 34.45 2.65091 34.45H8.30618L6.53891 43.9017L16.9658 34.45H19.44V32.6833Z" fill='#FFAE00'/>
<path d="M35.3455 9.71667H5.30185V11.4833H35.3455V9.71667Z" fill='#FFAE00'/>
<path d="M35.3455 15.0167H5.30185V16.7833H35.3455V15.0167Z" fill='#FFAE00'/>
<path d="M35.3455 20.3167H5.30185V22.0833H35.3455V20.3167Z" fill='#FFAE00'/>
<path d="M5.30185 27.3833H19.5284C19.7051 26.765 19.9702 26.1466 20.3237 25.6166H5.30185V27.3833Z" fill='#FFAE00'/>
<path d="M50.3672 25.6166H23.8582C22.356 25.6166 21.2072 26.765 21.2072 28.2666V45.9333C21.2072 47.435 22.356 48.5833 23.8582 48.5833H50.3672C51.8694 48.5833 53.0182 47.435 53.0182 45.9333V28.2666C53.0182 26.765 51.8694 25.6166 50.3672 25.6166ZM51.2509 41.7816L41.0891 36.3933L51.2509 32.2416V41.7816ZM23.8582 27.3833H50.3672C50.8974 27.3833 51.2509 27.7366 51.2509 28.2666V30.2983L37.1127 36.1283L22.9745 30.2983V28.2666C22.9745 27.7366 23.328 27.3833 23.8582 27.3833ZM33.1363 36.3933L22.9745 41.7816V32.2416L33.1363 36.3933ZM50.3672 46.8166H23.8582C23.328 46.8166 22.9745 46.4633 22.9745 45.9333V43.8133L35.2571 37.2766L37.1127 38.0716L38.9683 37.2766L51.2509 43.8133V45.9333C51.2509 46.4633 50.8974 46.8166 50.3672 46.8166Z" fill='#FFAE00'/>
</svg>
