<svg width="22" height="16" viewBox="0 0 22 16" fill="none" xmlns="http://www.w3.org/2000/svg">
<g clip-path="url(#clip0)">
<path d="M19.9361 1.34546C19.872 0.950306 19.6584 0.60364 19.3379 0.370913C19.0175 0.135761 18.6282 0.041216 18.2413 0.109095H18.2389L3.00501 2.68849C2.25969 2.81697 1.73749 3.37212 1.77785 4.22061H2.88396C2.86022 4.02425 2.99552 3.84728 3.18778 3.81334L18.4241 1.21455C18.519 1.19758 18.6164 1.22425 18.6947 1.28243C18.7778 1.34061 18.83 1.43031 18.8466 1.52728L20.2518 10.0994C20.285 10.3006 20.1996 10.4994 20.0026 10.5333L18.4977 10.8V5.78182C18.4977 5.3794 18.2888 4.97697 18.0111 4.69091C17.7334 4.40728 17.3109 4.22061 16.9168 4.22061H16.9145L2.88396 4.18909L3.0691 5.28243H16.9145C17.0118 5.28243 17.0854 5.38182 17.1542 5.45455C17.2254 5.52728 17.2444 5.68243 17.2444 5.78182V10.9939V12.1358V14.4703C17.2444 14.6739 17.1138 14.6352 16.9121 14.6352H1.4764C1.38145 14.6352 1.28888 14.7006 1.22004 14.6303C1.15121 14.5576 1.11323 14.5188 1.1156 14.4218L1.10374 5.69455C1.10374 5.49091 1.27464 5.28485 1.47165 5.28485H1.95349H3.07385L2.8887 4.22303H2.88633H1.78022H1.47165C0.659868 4.22303 0 4.92606 0 5.75515L0.0094945 14.4582C0.00712087 14.8582 0.159033 15.2097 0.436747 15.4958C0.712088 15.7818 1.08237 15.9152 1.4764 15.9152H4.79473H13.6294H16.9192C17.7334 15.9152 18.5 15.3067 18.5 14.4752V11.9491L20.1877 11.6509C20.99 11.5127 21.4766 10.737 21.3436 9.92L19.9361 1.34546Z" fill="white"/>
<path d="M3.51797 7.47636H3.05273V12.7564H3.51797V7.47636Z" fill="white"/>
<path d="M4.97424 7.47636H4.07227V12.7564H4.97424V7.47636Z" fill="white"/>
<path d="M8.77578 7.47636H8.31055V12.7564H8.77578V7.47636Z" fill="white"/>
<path d="M10.2297 7.47636H9.33008V12.7564H10.2297V7.47636Z" fill="white"/>
<path d="M14.0039 7.47636H13.541V12.7564H14.0039V7.47636Z" fill="white"/>
<path d="M15.4621 7.47636H14.5625V12.7564H15.4621V7.47636Z" fill="white"/>
<path d="M12.9836 7.47636H12.084V12.7564H12.9836V7.47636Z" fill="white"/>
<path d="M6.45429 7.47636H5.55469V12.7564H6.45429V7.47636Z" fill="white"/>
</g>
<defs>
<clipPath id="clip0">
<rect width="21.6" height="16" fill="white"/>
</clipPath>
</defs>
</svg>
