<svg width="54" height="54" viewBox="0 0 54 54" fill="none" xmlns="http://www.w3.org/2000/svg">
<path d="M27 0C12.0885 0 0 12.0885 0 27C0 41.9115 12.0885 54 27 54C41.9115 54 54 41.9115 54 27C53.9833 12.0955 41.9045 0.0166993 27 0ZM27 52.2C13.0825 52.2 1.8 40.9175 1.8 27C1.8 13.0825 13.0825 1.8 27 1.8C40.9175 1.8 52.2 13.0825 52.2 27C52.1842 40.9109 40.9109 52.1842 27 52.2Z" fill="white"/>
<path d="M35.3637 24.9363C35.7152 25.2875 36.2848 25.2875 36.6363 24.9363L40.2363 21.3363C40.3203 21.2524 40.3866 21.1526 40.4315 21.0428C40.5224 20.8226 40.5224 20.5756 40.4315 20.3555C40.3866 20.2456 40.3203 20.1459 40.2363 20.0619L36.6363 16.4619C36.283 16.1209 35.7218 16.1257 35.3747 16.4729C35.0275 16.8201 35.0227 17.3813 35.3637 17.7346L37.4274 19.8H32.4C28.5407 19.8 26.6489 22.3352 25.2 25.0308C23.7511 22.3308 21.8593 19.8 18 19.8H14.4C13.903 19.8 13.5 20.203 13.5 20.7C13.5 21.197 13.903 21.6 14.4 21.6H18C21.3416 21.6 22.718 24.0605 24.1928 27C22.718 29.9395 21.3416 32.4 18 32.4H14.4C13.903 32.4 13.5 32.803 13.5 33.3C13.5 33.797 13.903 34.2 14.4 34.2H18C21.8593 34.2 23.7511 31.6648 25.2 28.9692C26.6489 31.6648 28.5407 34.2 32.4 34.2H37.4274L35.3637 36.2637C35.1299 36.4896 35.0358 36.8244 35.1185 37.1391C35.2006 37.4537 35.4463 37.6994 35.7609 37.7815C36.0756 37.8642 36.4105 37.7701 36.6363 37.5363L40.2363 33.9363C40.3203 33.8524 40.3866 33.7526 40.4315 33.6428C40.5224 33.4226 40.5224 33.1756 40.4315 32.9555C40.3866 32.8456 40.3203 32.7459 40.2363 32.6619L36.6363 29.0619C36.283 28.7209 35.7218 28.7257 35.3747 29.0729C35.0275 29.4201 35.0227 29.9813 35.3637 30.3346L37.4274 32.4H32.4C29.0584 32.4 27.682 29.9395 26.2072 27C27.682 24.0605 29.0584 21.6 32.4 21.6H37.4274L35.3637 23.6637C35.0126 24.0152 35.0126 24.5848 35.3637 24.9363Z" fill="white"/>
</svg>
