<svg width="36" height="52" viewBox="0 0 36 52" fill="none" xmlns="http://www.w3.org/2000/svg">
<path d="M34.4783 0H0.565217C0.415312 0 0.271548 0.0595496 0.165549 0.165548C0.0595502 0.271547 0 0.415312 0 0.565217V51.4348C0 51.5847 0.0595502 51.7285 0.165549 51.8344C0.271548 51.9404 0.415312 52 0.565217 52H34.4783C34.6282 52 34.7719 51.9404 34.8779 51.8344C34.9839 51.7285 35.0435 51.5847 35.0435 51.4348V0.565217C35.0435 0.490992 35.0289 0.417493 35.0005 0.348918C34.972 0.280343 34.9304 0.218034 34.8779 0.165548C34.8254 0.113063 34.7631 0.0714295 34.6946 0.0430247C34.626 0.0146199 34.5525 0 34.4783 0ZM33.913 50.8696H1.13043V1.13043H33.913V50.8696Z" fill="#001C5E"/>
<path d="M31.0873 3.39136H3.95682C3.80691 3.39136 3.66315 3.45091 3.55715 3.55691C3.45115 3.6629 3.3916 3.80667 3.3916 3.95657V17.5218C3.3916 17.6717 3.45115 17.8155 3.55715 17.9215C3.66315 18.0275 3.80691 18.087 3.95682 18.087H31.0873C31.2372 18.087 31.3809 18.0275 31.4869 17.9215C31.5929 17.8155 31.6525 17.6717 31.6525 17.5218V3.95657C31.6525 3.80667 31.5929 3.6629 31.4869 3.55691C31.3809 3.45091 31.2372 3.39136 31.0873 3.39136ZM30.522 16.9566H4.52204V4.52179H30.522V16.9566Z" fill="#001C5E"/>
<path d="M31.0861 30.5217H24.3035C24.1536 30.5217 24.0098 30.5812 23.9038 30.6872C23.7978 30.7932 23.7383 30.937 23.7383 31.0869V48.473C23.7383 48.6229 23.7978 48.7667 23.9038 48.8727C24.0098 48.9787 24.1536 49.0382 24.3035 49.0382H31.0861C31.236 49.0382 31.3798 48.9787 31.4858 48.8727C31.5918 48.7667 31.6513 48.6229 31.6513 48.473V31.0869C31.6513 30.937 31.5918 30.7932 31.4858 30.6872C31.3798 30.5812 31.236 30.5217 31.0861 30.5217ZM30.5209 47.9078H24.8687V31.6521H30.5209V47.9078Z" fill="#001C5E"/>
<path d="M10.7394 19.9296H3.95682C3.80691 19.9296 3.66315 19.9891 3.55715 20.0951C3.45115 20.2011 3.3916 20.3449 3.3916 20.4948V27.2774C3.3916 27.4273 3.45115 27.5711 3.55715 27.6771C3.66315 27.7831 3.80691 27.8426 3.95682 27.8426H10.7394C10.8893 27.8426 11.0331 27.7831 11.1391 27.6771C11.2451 27.5711 11.3046 27.4273 11.3046 27.2774V20.4948C11.3046 20.3449 11.2451 20.2011 11.1391 20.0951C11.0331 19.9891 10.8893 19.9296 10.7394 19.9296ZM10.1742 26.7122H4.52204V21.06H10.1742V26.7122Z" fill="#001C5E"/>
<path d="M20.9133 19.9296H14.1306C13.9807 19.9296 13.837 19.9891 13.731 20.0951C13.625 20.2011 13.5654 20.3449 13.5654 20.4948V27.2774C13.5654 27.4273 13.625 27.5711 13.731 27.6771C13.837 27.7831 13.9807 27.8426 14.1306 27.8426H20.9133C21.0632 27.8426 21.2069 27.7831 21.3129 27.6771C21.4189 27.5711 21.4785 27.4273 21.4785 27.2774V20.4948C21.4785 20.3449 21.4189 20.2011 21.3129 20.0951C21.2069 19.9891 21.0632 19.9296 20.9133 19.9296ZM20.348 26.7122H14.6959V21.06H20.348V26.7122Z" fill="#001C5E"/>
<path d="M10.7394 30.5217H3.95682C3.80691 30.5217 3.66315 30.5812 3.55715 30.6872C3.45115 30.7932 3.3916 30.937 3.3916 31.0869V37.8695C3.3916 38.0194 3.45115 38.1632 3.55715 38.2692C3.66315 38.3752 3.80691 38.4347 3.95682 38.4347H10.7394C10.8893 38.4347 11.0331 38.3752 11.1391 38.2692C11.2451 38.1632 11.3046 38.0194 11.3046 37.8695V31.0869C11.3046 30.937 11.2451 30.7932 11.1391 30.6872C11.0331 30.5812 10.8893 30.5217 10.7394 30.5217ZM10.1742 37.3043H4.52204V31.6521H10.1742V37.3043Z" fill="#001C5E"/>
<path d="M20.9133 30.5217H14.1306C13.9807 30.5217 13.837 30.5812 13.731 30.6872C13.625 30.7932 13.5654 30.937 13.5654 31.0869V37.8695C13.5654 38.0194 13.625 38.1632 13.731 38.2692C13.837 38.3752 13.9807 38.4347 14.1306 38.4347H20.9133C21.0632 38.4347 21.2069 38.3752 21.3129 38.2692C21.4189 38.1632 21.4785 38.0194 21.4785 37.8695V31.0869C21.4785 30.937 21.4189 30.7932 21.3129 30.6872C21.2069 30.5812 21.0632 30.5217 20.9133 30.5217ZM20.348 37.3043H14.6959V31.6521H20.348V37.3043Z" fill="#001C5E"/>
<path d="M10.7394 41.1252H3.95682C3.80691 41.1252 3.66315 41.1848 3.55715 41.2908C3.45115 41.3968 3.3916 41.5405 3.3916 41.6904V48.473C3.3916 48.623 3.45115 48.7667 3.55715 48.8727C3.66315 48.9787 3.80691 49.0383 3.95682 49.0383H10.7394C10.8893 49.0383 11.0331 48.9787 11.1391 48.8727C11.2451 48.7667 11.3046 48.623 11.3046 48.473V41.6904C11.3046 41.5405 11.2451 41.3968 11.1391 41.2908C11.0331 41.1848 10.8893 41.1252 10.7394 41.1252ZM10.1742 47.9078H4.52204V42.2556H10.1742V47.9078Z" fill="#001C5E"/>
<path d="M20.9133 41.1252H14.1306C13.9807 41.1252 13.837 41.1848 13.731 41.2908C13.625 41.3968 13.5654 41.5405 13.5654 41.6904V48.473C13.5654 48.623 13.625 48.7667 13.731 48.8727C13.837 48.9787 13.9807 49.0383 14.1306 49.0383H20.9133C21.0632 49.0383 21.2069 48.9787 21.3129 48.8727C21.4189 48.7667 21.4785 48.623 21.4785 48.473V41.6904C21.4785 41.5405 21.4189 41.3968 21.3129 41.2908C21.2069 41.1848 21.0632 41.1252 20.9133 41.1252ZM20.348 47.9078H14.6959V42.2556H20.348V47.9078Z" fill="#001C5E"/>
<path d="M31.0861 19.9296H24.3035C24.1536 19.9296 24.0098 19.9891 23.9038 20.0951C23.7978 20.2011 23.7383 20.3449 23.7383 20.4948V27.2774C23.7383 27.4273 23.7978 27.5711 23.9038 27.6771C24.0098 27.7831 24.1536 27.8426 24.3035 27.8426H31.0861C31.236 27.8426 31.3798 27.7831 31.4858 27.6771C31.5918 27.5711 31.6513 27.4273 31.6513 27.2774V20.4948C31.6513 20.3449 31.5918 20.2011 31.4858 20.0951C31.3798 19.9891 31.236 19.9296 31.0861 19.9296ZM30.5209 26.7122H24.8687V21.06H30.5209V26.7122Z" fill="#001C5E"/>
</svg>
