<svg width="19" height="18" viewBox="0 0 19 18" fill="none" xmlns="http://www.w3.org/2000/svg">
<path d="M15.7534 1.1781H14.9482L14.7182 2.02789C14.5264 2.80042 13.7788 3.37982 13.0119 3.37982C12.5901 3.37982 12.1875 3.206 11.9575 2.87767C11.7083 2.54935 11.6316 2.10514 11.7466 1.68025L11.8808 1.1781H9.29268L9.06263 2.02789C8.85174 2.80042 8.12323 3.37982 7.33721 3.37982C6.91544 3.37982 6.53202 3.206 6.28279 2.87767C6.03356 2.54935 5.95688 2.10514 6.0719 1.68025L6.2061 1.1781H5.36257C4.07809 1.1781 2.79361 2.18239 2.4677 3.47638L0.0904593 12.3026C-0.101254 12.9978 0.013774 13.6931 0.416371 14.1953C0.799797 14.6974 1.39411 14.9871 2.0651 14.9871H3.23455V15.5086C3.23455 16.8798 4.34649 18 5.70765 18H15.7534C17.1146 18 18.2265 16.8798 18.2265 15.5086V3.66952C18.2265 2.29827 17.1146 1.1781 15.7534 1.1781ZM2.08427 13.4807C1.9309 13.4807 1.73919 13.4421 1.62416 13.2875C1.50914 13.1524 1.48996 12.9399 1.56665 12.7081L3.52212 5.33046H15.4467L13.5871 12.3219C13.4145 12.9592 12.7435 13.5 12.13 13.5H2.08427V13.4807ZM16.7311 15.5086C16.7311 16.0493 16.2902 16.4936 15.7534 16.4936H5.72682C5.19002 16.4936 4.74908 16.0493 4.74908 15.5086V14.9871H12.13C13.4145 14.9871 14.699 13.9828 15.0249 12.6888L16.7311 6.29613V15.5086Z" fill="#FD151B"/>
<path d="M7.33775 2.68455C7.79786 2.68455 8.25797 2.3176 8.373 1.85408L8.6414 0.830472C8.75642 0.366953 8.48803 0 8.04709 0C7.58698 0 7.12686 0.366953 7.01184 0.830472L6.74344 1.85408C6.62841 2.29828 6.89681 2.68455 7.33775 2.68455Z" fill="#FD151B"/>
<path d="M13.0111 2.68455C13.4713 2.68455 13.9314 2.3176 14.0464 1.85408L14.3148 0.830472C14.4298 0.366953 14.1614 0 13.7205 0C13.2604 0 12.8003 0.366953 12.6852 0.830472L12.3977 1.85408C12.2826 2.29828 12.551 2.68455 13.0111 2.68455Z" fill="#FD151B"/>
<path d="M9.15896 9.86911H7.37603C7.261 9.86911 7.1268 9.96568 7.08846 10.0816L6.74337 11.3949C6.70503 11.5107 6.78172 11.6073 6.89674 11.6073H8.67968C8.7947 11.6073 8.9289 11.5107 8.96724 11.3949L9.31233 10.0816C9.35067 9.96568 9.27399 9.86911 9.15896 9.86911Z" fill="#FD151B"/>
<path d="M6.0154 9.86911H4.23247C4.11744 9.86911 3.98324 9.96568 3.9449 10.0816L3.59982 11.3949C3.56148 11.5107 3.63816 11.6073 3.75319 11.6073H5.53612C5.65115 11.6073 5.78535 11.5107 5.82369 11.3949L6.16877 10.0816C6.20711 9.96568 6.1496 9.86911 6.0154 9.86911Z" fill="#FD151B"/>
<path d="M12.3015 9.86911H10.5186C10.4036 9.86911 10.2694 9.96568 10.231 10.0816L9.88595 11.3949C9.84761 11.5107 9.92429 11.6073 10.0393 11.6073H11.8223C11.9373 11.6073 12.0715 11.5107 12.1098 11.3949L12.4549 10.0816C12.4932 9.96568 12.4166 9.86911 12.3015 9.86911Z" fill="#FD151B"/>
<path d="M9.88747 7.1073H8.10454C7.98951 7.1073 7.85531 7.20387 7.81697 7.31975L7.47189 8.63305C7.43355 8.74893 7.51023 8.8455 7.62526 8.8455H9.40819C9.52322 8.8455 9.65742 8.74893 9.69576 8.63305L10.0408 7.31975C10.0792 7.20387 10.0217 7.1073 9.88747 7.1073Z" fill="#FD151B"/>
<path d="M6.76247 7.1073H4.97954C4.86451 7.1073 4.73031 7.20387 4.69197 7.31975L4.34689 8.63305C4.30855 8.74893 4.38523 8.8455 4.50026 8.8455H6.28319C6.39822 8.8455 6.53242 8.74893 6.57076 8.63305L6.91584 7.31975C6.95418 7.20387 6.8775 7.1073 6.76247 7.1073Z" fill="#FD151B"/>
<path d="M10.7871 8.86482H12.57C12.6851 8.86482 12.8193 8.76825 12.8576 8.65237L13.2027 7.33906C13.241 7.22318 13.1643 7.12662 13.0493 7.12662H11.2664C11.1514 7.12662 11.0172 7.22318 10.9788 7.33906L10.6337 8.65237C10.5954 8.74894 10.6529 8.86482 10.7871 8.86482Z" fill="#FD151B"/>
</svg>
