<svg width="22" height="22" viewBox="0 0 22 22" fill="none" xmlns="http://www.w3.org/2000/svg">
<path d="M20.031 18.617L2.59609 1.18203C1.94361 0.529549 1.09728 0.316784 0.706956 0.707107C0.316633 1.09743 0.529398 1.94376 1.18188 2.59624L18.6168 20.0312C19.2693 20.6837 20.1156 20.8964 20.5059 20.5061C20.8963 20.1158 20.6841 19.27 20.031 18.617Z" fill="white"/>
<path d="M18.617 1.38292L1.18203 18.8178C0.529549 19.4703 0.316784 20.3167 0.707107 20.707C1.09743 21.0973 1.94376 20.8845 2.59624 20.2321L20.0312 2.79713C20.6837 2.14465 20.8964 1.29832 20.5061 0.907995C20.1158 0.517672 19.27 0.729847 18.617 1.38292Z" fill="white"/>
</svg>
