<svg width="54" height="53" viewBox="0 0 54 53" fill="none" xmlns="http://www.w3.org/2000/svg">
<path d="M19.44 32.6833H16.2589L9.27818 39.1316L10.4269 32.6833H2.65091C2.12073 32.6833 1.76727 32.33 1.76727 31.8V7.06666C1.76727 6.53666 2.12073 6.18332 2.65091 6.18332H37.9964C38.5265 6.18332 38.88 6.53666 38.88 7.06666V23.85H40.6473V7.06666C40.6473 5.56499 39.4985 4.41666 37.9964 4.41666H2.65091C1.14873 4.41666 0 5.56499 0 7.06666V31.8C0 33.3017 1.14873 34.45 2.65091 34.45H8.30618L6.53891 43.9016L16.9658 34.45H19.44V32.6833Z" fill="white"/>
<path d="M35.3444 9.71667H5.30078V11.4833H35.3444V9.71667Z" fill="white"/>
<path d="M35.3444 15.0167H5.30078V16.7833H35.3444V15.0167Z" fill="white"/>
<path d="M35.3444 20.3167H5.30078V22.0833H35.3444V20.3167Z" fill="white"/>
<path d="M5.30078 27.3833H19.5273C19.7041 26.765 19.9691 26.1467 20.3226 25.6167H5.30078V27.3833Z" fill="white"/>
<path d="M50.367 25.6167H23.8579C22.3558 25.6167 21.207 26.765 21.207 28.2667V45.9333C21.207 47.435 22.3558 48.5833 23.8579 48.5833H50.367C51.8692 48.5833 53.0179 47.435 53.0179 45.9333V28.2667C53.0179 26.765 51.8692 25.6167 50.367 25.6167ZM51.2507 41.7817L41.0889 36.3933L51.2507 32.2417V41.7817ZM23.8579 27.3833H50.367C50.8972 27.3833 51.2507 27.7367 51.2507 28.2667V30.2983L37.1125 36.1283L22.9743 30.2983V28.2667C22.9743 27.7367 23.3278 27.3833 23.8579 27.3833ZM33.1361 36.3933L22.9743 41.7817V32.2417L33.1361 36.3933ZM50.367 46.8167H23.8579C23.3278 46.8167 22.9743 46.4633 22.9743 45.9333V43.8133L35.2569 37.2767L37.1125 38.0717L38.9681 37.2767L51.2507 43.8133V45.9333C51.2507 46.4633 50.8972 46.8167 50.367 46.8167Z" fill="white"/>
</svg>
