<svg width="17" height="17" viewBox="0 0 17 17" fill="none" xmlns="http://www.w3.org/2000/svg">
<path d="M8.05264 0C6.45997 0 4.90308 0.472278 3.57883 1.35711C2.25458 2.24195 1.22246 3.4996 0.612974 4.97102C0.00348904 6.44245 -0.15598 8.06157 0.154733 9.62362C0.465445 11.1857 1.23238 12.6205 2.35856 13.7467C3.48475 14.8729 4.91959 15.6398 6.48164 15.9505C8.0437 16.2612 9.66282 16.1018 11.1342 15.4923C12.6057 14.8828 13.8633 13.8507 14.7482 12.5264C15.633 11.2022 16.1053 9.64529 16.1053 8.05263C16.1053 5.91694 15.2569 3.86872 13.7467 2.35856C12.2365 0.8484 10.1883 0 8.05264 0ZM8.05264 14.3158C6.8139 14.3158 5.60298 13.9485 4.57301 13.2603C3.54304 12.5721 2.74028 11.5939 2.26623 10.4494C1.79219 9.305 1.66816 8.04568 1.90982 6.83075C2.15149 5.61582 2.748 4.49983 3.62391 3.62391C4.49983 2.74799 5.61582 2.15148 6.83075 1.90982C8.04569 1.66815 9.305 1.79218 10.4494 2.26623C11.5939 2.74027 12.5721 3.54304 13.2603 4.57301C13.9485 5.60298 14.3158 6.8139 14.3158 8.05263C14.3158 9.71372 13.6559 11.3068 12.4814 12.4814C11.3068 13.6559 9.71373 14.3158 8.05264 14.3158Z" fill="white"/>
<path d="M9.84185 6.26316C10.0791 6.26316 10.3067 6.16889 10.4745 6.0011C10.6423 5.8333 10.7366 5.60572 10.7366 5.36842C10.7366 5.13112 10.6423 4.90354 10.4745 4.73575C10.3067 4.56795 10.0791 4.47369 9.84185 4.47369H8.94711C8.94711 4.23639 8.85285 4.00881 8.68505 3.84101C8.51725 3.67322 8.28967 3.57895 8.05237 3.57895C7.81508 3.57895 7.5875 3.67322 7.4197 3.84101C7.2519 4.00881 7.15764 4.23639 7.15764 4.47369H6.2629C6.0256 4.47369 5.79802 4.56795 5.63023 4.73575C5.46243 4.90354 5.36816 5.13112 5.36816 5.36842V8.05263C5.36816 8.28993 5.46243 8.51751 5.63023 8.68531C5.79802 8.8531 6.0256 8.94737 6.2629 8.94737H8.94711V9.84211H6.2629C6.0256 9.84211 5.79802 9.93637 5.63023 10.1042C5.46243 10.272 5.36816 10.4995 5.36816 10.7368C5.36816 10.9741 5.46243 11.2017 5.63023 11.3695C5.79802 11.5373 6.0256 11.6316 6.2629 11.6316H7.15764C7.15764 11.8689 7.2519 12.0965 7.4197 12.2643C7.5875 12.4321 7.81508 12.5263 8.05237 12.5263C8.28967 12.5263 8.51725 12.4321 8.68505 12.2643C8.85285 12.0965 8.94711 11.8689 8.94711 11.6316H9.84185C10.0791 11.6316 10.3067 11.5373 10.4745 11.3695C10.6423 11.2017 10.7366 10.9741 10.7366 10.7368V8.05263C10.7366 7.81533 10.6423 7.58775 10.4745 7.41996C10.3067 7.25216 10.0791 7.1579 9.84185 7.1579H7.15764V6.26316H9.84185Z" fill="white"/>
</svg>
