<svg width="18" height="18" viewBox="0 0 18 18" fill="none" xmlns="http://www.w3.org/2000/svg">
<g clip-path="url(#clip0)">
<path d="M17.9813 9.02778C17.9813 4.08008 13.9659 0.0646973 9.01826 0.0646973C4.07056 0.0646973 0.0551758 4.08008 0.0551758 9.02778C0.0551758 13.5047 3.3321 17.2155 7.62441 17.8801V11.6124H5.33518V9.02778H7.62441V7.05239C7.62441 4.80931 8.95364 3.56316 11.0029 3.56316C11.9813 3.56316 12.9967 3.74777 12.9967 3.74777V5.93547H11.8706C10.7536 5.93547 10.4029 6.63701 10.4029 7.33854V9.01854H12.8952L12.4983 11.6032H10.4029V17.8709C14.7044 17.2155 17.9813 13.5047 17.9813 9.02778Z" fill="#1877F2"/>
<path d="M12.5078 11.6215L12.9047 9.03688H10.4124V7.35688C10.4124 6.64611 10.7724 5.9538 11.8801 5.9538H13.0063V3.75688C13.0063 3.75688 11.9909 3.57227 11.0124 3.57227C8.96318 3.57227 7.63396 4.81842 7.63396 7.0615V9.03688H5.34473V11.6215H7.63396V17.8892C8.08626 17.963 8.55703 18 9.0278 18C9.49857 18 9.96934 17.963 10.4216 17.8892V11.6215H12.5078Z" fill="white"/>
</g>
<defs>
<clipPath id="clip0">
<rect width="18" height="18" fill="white"/>
</clipPath>
</defs>
</svg>
