<svg width="18" height="17" viewBox="0 0 18 17" fill="none" xmlns="http://www.w3.org/2000/svg">
<path fill-rule="evenodd" clip-rule="evenodd" d="M17.64 8.58065C17.64 7.99376 17.5827 7.42944 17.4764 6.8877H9V10.0893H13.8436C13.635 11.1238 13.0009 12.0004 12.0477 12.5873V14.664H14.9564C16.6582 13.2231 17.64 11.1013 17.64 8.58065Z" fill="#4285F4"/>
<path fill-rule="evenodd" clip-rule="evenodd" d="M9 16.6694C11.43 16.6694 13.4673 15.9282 14.9564 14.6642L12.0477 12.5875C11.2418 13.0841 10.2109 13.3775 9 13.3775C6.65591 13.3775 4.67182 11.9216 3.96409 9.96533H0.957275V12.1097C2.43818 14.8147 5.48182 16.6694 9 16.6694Z" fill="#34A853"/>
<path fill-rule="evenodd" clip-rule="evenodd" d="M3.96408 9.96509C3.78408 9.46848 3.68181 8.93802 3.68181 8.39252C3.68181 7.84701 3.78408 7.31655 3.96408 6.81995V4.67554H0.95727C0.347726 5.79289 0 7.05696 0 8.39252C0 9.72807 0.347726 10.9921 0.95727 12.1095L3.96408 9.96509Z" fill="#FBBC05"/>
<path fill-rule="evenodd" clip-rule="evenodd" d="M9 3.40779C10.3214 3.40779 11.5077 3.82539 12.4405 4.64552L15.0218 2.27164C13.4632 0.936102 11.4259 0.115967 9 0.115967C5.48182 0.115967 2.43818 1.97068 0.957275 4.67562L3.96409 6.82001C4.67182 4.86372 6.65591 3.40779 9 3.40779Z" fill="#EA4335"/>
</svg>
